<?xml version="1.0" encoding="utf-8"?>
<!-- Generator: Adobe Illustrator 21.1.0, SVG Export Plug-In . SVG Version: 6.00 Build 0)  -->
<svg version="1.1" id="Calque_1" xmlns="http://www.w3.org/2000/svg" xmlns:xlink="http://www.w3.org/1999/xlink" x="0px" y="0px"
	 viewBox="0 0 25.1 44.7" style="enable-background:new 0 0 25.1 44.7;" xml:space="preserve">
<style type="text/css">
	.st0{opacity:0.3;fill:#FF4900;}
	.st1{fill:#DADADA;}
	.st2{fill:#FF4900;}
	.st3{fill:none;stroke:#FFEC00;stroke-width:3;stroke-linecap:round;stroke-linejoin:round;stroke-miterlimit:10;}
	.st4{fill:none;stroke:#000000;stroke-width:7;stroke-linecap:round;stroke-linejoin:round;stroke-miterlimit:10;}
	.st5{fill:none;stroke:#FF4900;stroke-width:8;stroke-linecap:round;stroke-linejoin:round;stroke-miterlimit:10;}
	.st6{fill:none;stroke:#D261FF;stroke-width:8;stroke-linecap:round;stroke-linejoin:round;stroke-miterlimit:10;}
	.st7{fill:none;stroke:#91FF00;stroke-width:2;stroke-miterlimit:10;}
	.st8{fill:none;stroke:#EAFF00;stroke-width:2;stroke-miterlimit:10;}
	.st9{fill:none;stroke:#000000;stroke-width:6;stroke-linecap:round;stroke-linejoin:round;stroke-miterlimit:10;}
	.st10{fill:#E6FC5A;}
	.st11{fill:none;stroke:#E6FC5A;stroke-width:6;stroke-linecap:round;stroke-linejoin:round;stroke-miterlimit:10;}
	.st12{fill:none;stroke:#FF4900;stroke-width:6;stroke-linecap:round;stroke-linejoin:round;stroke-miterlimit:10;}
	.st13{fill:none;stroke:#FF4900;stroke-width:6;stroke-linejoin:bevel;stroke-miterlimit:10;}
	.st14{fill:none;stroke:#FF4900;stroke-width:6;stroke-miterlimit:10;}
	.st15{fill:#FF00FF;}
	.st16{fill:none;stroke:#FF00FF;stroke-width:6;stroke-linecap:round;stroke-linejoin:round;stroke-miterlimit:10;}
	.st17{fill:#0C24FF;}
	.st18{fill:none;stroke:#FF4200;stroke-width:2;stroke-linecap:round;stroke-linejoin:round;stroke-miterlimit:10;}
	.st19{fill:#996699;}
	.st20{fill:none;stroke:#0C24FF;stroke-width:6;stroke-linecap:round;stroke-linejoin:round;stroke-miterlimit:10;}
	.st21{fill:none;stroke:#81FC5A;stroke-width:3;stroke-linecap:round;stroke-linejoin:round;}
	.st22{fill:none;stroke:#81FC5A;stroke-width:3;stroke-linecap:round;stroke-linejoin:round;stroke-dasharray:22.6836,22.6836;}
	
		.st23{fill:none;stroke:#E6FC5A;stroke-width:6;stroke-linecap:round;stroke-linejoin:round;stroke-miterlimit:10;stroke-dasharray:23;}
	.st24{fill:none;stroke:#CA4E33;stroke-miterlimit:10;}
	.st25{fill:#222221;}
	.st26{fill:none;stroke:#000000;stroke-miterlimit:10;}
	.st27{fill:none;stroke:#222221;stroke-miterlimit:10;}
	.st28{fill:none;stroke:#C83D43;stroke-miterlimit:10;}
	.st29{fill:none;stroke:#C83D43;stroke-width:0.25;stroke-miterlimit:10;}
	.st30{fill:none;stroke:#C83D43;stroke-width:0.25;stroke-miterlimit:10;stroke-dasharray:11.8404,11.8404;}
	.st31{fill:none;stroke:#C83D43;stroke-width:0.25;stroke-miterlimit:10;stroke-dasharray:11.7613,11.7613;}
	.st32{fill:none;stroke:#C83D43;stroke-width:0.25;stroke-miterlimit:10;stroke-dasharray:11.7874,11.7874;}
	.st33{fill:none;stroke:#C83D43;stroke-width:0.25;stroke-miterlimit:10;stroke-dasharray:11.8085,11.8085;}
	.st34{fill:none;stroke:#C83D43;stroke-width:0.25;stroke-miterlimit:10;stroke-dasharray:11.6459,11.6459;}
	.st35{fill:none;stroke:#C83D43;stroke-width:0.25;stroke-miterlimit:10;stroke-dasharray:11.6277,11.6277;}
	.st36{fill:none;stroke:#C83D43;stroke-width:0.25;stroke-miterlimit:10;stroke-dasharray:11.6404,11.6404;}
	.st37{fill:none;stroke:#C83D43;stroke-width:0.25;stroke-miterlimit:10;stroke-dasharray:11.7832,11.7832;}
	.st38{fill:none;stroke:#C83D43;stroke-width:0.25;stroke-miterlimit:10;stroke-dasharray:11.7156,11.7156;}
	.st39{clip-path:url(#SVGID_2_);}
	.st40{clip-path:url(#SVGID_2_);fill:none;stroke:#000000;stroke-width:0.5;stroke-miterlimit:10;}
	.st41{clip-path:url(#SVGID_4_);}
	.st42{clip-path:url(#SVGID_4_);fill:none;stroke:#000000;stroke-width:0.5;stroke-miterlimit:10;}
	.st43{clip-path:url(#SVGID_6_);}
	.st44{clip-path:url(#SVGID_6_);fill:none;stroke:#000000;stroke-width:0.5;stroke-miterlimit:10;}
	.st45{clip-path:url(#SVGID_8_);}
	.st46{clip-path:url(#SVGID_10_);}
	.st47{clip-path:url(#SVGID_12_);}
	.st48{clip-path:url(#SVGID_14_);}
	.st49{fill:#FFFFFF;}
	.st50{clip-path:url(#SVGID_16_);}
	.st51{clip-path:url(#SVGID_18_);}
	.st52{clip-path:url(#SVGID_20_);}
	.st53{clip-path:url(#SVGID_22_);}
	.st54{clip-path:url(#SVGID_24_);}
	.st55{clip-path:url(#SVGID_26_);}
	.st56{fill:#E8E8E8;}
	.st57{clip-path:url(#SVGID_28_);}
	.st58{clip-path:url(#SVGID_30_);}
	.st59{clip-path:url(#SVGID_32_);}
	.st60{clip-path:url(#SVGID_34_);}
	.st61{clip-path:url(#SVGID_36_);}
	.st62{clip-path:url(#SVGID_38_);}
	.st63{fill:none;stroke:#FF4900;stroke-width:6;stroke-linecap:round;stroke-linejoin:round;}
	.st64{fill:none;stroke:#FF4900;stroke-width:6;stroke-linecap:round;stroke-linejoin:round;stroke-dasharray:12.1123,12.1123;}
	.st65{fill:none;stroke:#000000;stroke-width:4;stroke-linecap:round;stroke-linejoin:round;stroke-miterlimit:10;}
	.st66{fill:none;stroke:#000000;stroke-width:2;stroke-miterlimit:10;}
	.st67{fill:#FFFFFF;stroke:#000000;stroke-miterlimit:10;}
	.st68{fill:none;stroke:#000000;stroke-width:3;stroke-miterlimit:10;}
	.st69{fill:#FFFFFF;stroke:#000000;stroke-width:0.5;stroke-miterlimit:10;}
	.st70{fill:#FFFFFF;stroke:#000000;stroke-linecap:round;stroke-linejoin:round;stroke-miterlimit:10;}
	.st71{stroke:#000000;stroke-width:1.8;stroke-miterlimit:10;}
	.st72{clip-path:url(#SVGID_40_);fill:#222221;}
	.st73{clip-path:url(#SVGID_42_);fill:#222221;}
	.st74{fill:url(#SVGID_43_);stroke:#000000;stroke-width:1.5;stroke-miterlimit:10;}
	.st75{fill:url(#SVGID_44_);stroke:#000000;stroke-width:1.5;stroke-miterlimit:10;}
	.st76{fill:url(#SVGID_45_);stroke:#000000;stroke-width:1.5;stroke-miterlimit:10;}
	.st77{fill:url(#SVGID_46_);stroke:#000000;stroke-width:1.5;stroke-miterlimit:10;}
	.st78{fill:url(#SVGID_47_);stroke:#000000;stroke-width:1.5;stroke-miterlimit:10;}
	.st79{fill:url(#SVGID_48_);stroke:#000000;stroke-width:1.5;stroke-miterlimit:10;}
	.st80{fill:url(#SVGID_49_);stroke:#000000;stroke-width:1.5;stroke-miterlimit:10;}
	.st81{fill:url(#SVGID_50_);stroke:#000000;stroke-width:1.5;stroke-miterlimit:10;}
	.st82{fill:url(#SVGID_51_);stroke:#000000;stroke-width:1.5;stroke-miterlimit:10;}
	.st83{fill:#0000FF;}
	.st84{fill:url(#SVGID_52_);}
	.st85{fill:url(#SVGID_53_);}
	.st86{fill:url(#SVGID_54_);}
	.st87{fill:url(#SVGID_55_);}
	.st88{fill:#FF0000;}
	.st89{fill:url(#SVGID_56_);stroke:#FFFFFF;stroke-width:0.75;stroke-miterlimit:10;}
	.st90{fill:url(#SVGID_57_);stroke:#FFFFFF;stroke-width:0.75;stroke-miterlimit:10;}
	.st91{fill:url(#SVGID_58_);stroke:#FFFFFF;stroke-width:0.75;stroke-miterlimit:10;}
	.st92{fill:url(#SVGID_59_);stroke:#FFFFFF;stroke-width:0.75;stroke-miterlimit:10;}
	.st93{fill:url(#SVGID_60_);stroke:#FFFFFF;stroke-width:0.75;stroke-miterlimit:10;}
	.st94{fill:url(#SVGID_61_);stroke:#FFFFFF;stroke-width:0.75;stroke-miterlimit:10;}
	.st95{fill:url(#SVGID_62_);stroke:#FFFFFF;stroke-width:0.75;stroke-miterlimit:10;}
	.st96{fill:url(#SVGID_63_);stroke:#FFFFFF;stroke-width:0.75;stroke-miterlimit:10;}
	.st97{fill:url(#SVGID_64_);stroke:#FFFFFF;stroke-width:0.75;stroke-miterlimit:10;}
	.st98{fill:none;stroke:#FF00FF;stroke-width:3;stroke-linecap:round;stroke-linejoin:round;stroke-miterlimit:10;}
	.st99{fill:url(#SVGID_65_);stroke:#FFFFFF;stroke-width:0.75;stroke-miterlimit:10;}
	.st100{fill:url(#SVGID_66_);stroke:#000000;stroke-width:0.75;stroke-miterlimit:10;}
	.st101{fill:url(#SVGID_67_);stroke:#000000;stroke-width:0.75;stroke-miterlimit:10;}
	.st102{fill:url(#SVGID_68_);stroke:#000000;stroke-width:0.75;stroke-miterlimit:10;}
	.st103{fill:url(#SVGID_69_);stroke:#000000;stroke-width:0.75;stroke-miterlimit:10;}
	.st104{fill:url(#SVGID_70_);stroke:#000000;stroke-width:0.75;stroke-miterlimit:10;}
	.st105{fill:url(#SVGID_71_);stroke:#000000;stroke-width:0.75;stroke-miterlimit:10;}
	.st106{fill:url(#SVGID_72_);stroke:#000000;stroke-width:0.75;stroke-miterlimit:10;}
	.st107{fill:url(#SVGID_73_);stroke:#000000;stroke-width:0.75;stroke-miterlimit:10;}
	.st108{fill:url(#SVGID_74_);stroke:#000000;stroke-width:0.75;stroke-miterlimit:10;}
	.st109{clip-path:url(#SVGID_76_);}
	.st110{fill:none;stroke:#FF0000;stroke-width:0.5;stroke-miterlimit:10;}
	.st111{fill:none;stroke:#000000;stroke-width:0.5;stroke-miterlimit:10;}
	.st112{fill:none;stroke:#000000;stroke-width:0.5;stroke-miterlimit:10;stroke-dasharray:11.7939,11.7939;}
	.st113{fill:none;stroke:#000000;stroke-width:0.5;stroke-miterlimit:10;stroke-dasharray:11.8028,11.8028;}
	.st114{fill:none;stroke:#000000;stroke-width:0.5;stroke-miterlimit:10;stroke-dasharray:11.7938,11.7938;}
	.st115{fill:none;stroke:#000000;stroke-width:0.5;stroke-miterlimit:10;stroke-dasharray:12.5626,12.5626;}
	.st116{fill:none;stroke:#000000;stroke-width:0.5;stroke-miterlimit:10;stroke-dasharray:12.5627,12.5627;}
</style>
<g>
	<path d="M16.9,17.2c2.7,0,5.5,0,8.2,0c-0.1,2.6-0.2,5.1-0.4,7.7c-2.6,0-5.2,0-7.8,0c0,0-0.1,0-0.1,0.1c0,0,0,0,0,0c0,0,0,0,0,0.1
		c0,0,0,0,0,0c0,0,0,0.1,0,0.1c0,6.9,0,13.8,0,20.6c0,0,0,0,0,0.1c0,0,0,0,0,0c-0.3,0.1-7.4,0.1-8,0c0,0,0,0,0,0c0,0,0,0,0,0
		c0,0,0,0,0,0c0,0,0,0,0,0c0,0,0,0,0-0.1c0,0,0,0,0,0c0,0,0,0,0,0c0,0,0,0,0-0.1c0-6.8,0-13.6,0-20.4c0,0,0,0,0-0.1c0,0,0,0,0,0
		c0,0,0,0,0,0c0,0,0,0,0,0c0,0,0,0,0,0c0,0,0,0,0-0.1c-0.9,0-1.8,0-2.7,0c-0.9,0-1.8,0-2.8,0c0-2.6,0-5.1,0-7.7c1.8,0,3.7,0,5.6,0
		c0-0.2,0-0.3,0-0.4c0-2,0-4,0-6c0-1.4,0.2-2.7,0.8-4c1.1-2.5,3-4.2,5.5-5.1c1.2-0.4,2.4-0.6,3.7-0.7c2-0.1,4.1,0,6.1,0.3
		c0.1,0,0.1,0,0.2,0C25,3.6,25,6,24.9,8.4c-0.2,0-0.3,0-0.4,0c-1.5,0-3,0-4.6,0c-0.4,0-0.8,0.1-1.3,0.1c-0.9,0.2-1.5,0.8-1.7,1.7
		c-0.1,0.4-0.1,0.8-0.1,1.2c0,1.8,0,3.7,0,5.5C16.9,17,16.9,17,16.9,17.2z"/>
</g>
</svg>
