<!-- Generator: Adobe Illustrator 21.1.0, SVG Export Plug-In  -->
<svg version="1.1"
	 xmlns="http://www.w3.org/2000/svg" xmlns:xlink="http://www.w3.org/1999/xlink" xmlns:a="http://ns.adobe.com/AdobeSVGViewerExtensions/3.0/"
	 x="0px" y="0px" width="160.866px" height="74.762px" viewBox="0 0 160.866 74.762"
	 style="enable-background:new 0 0 160.866 74.762;" xml:space="preserve">
<style type="text/css">
	.st0{clip-path:url(#SVGID_3_);fill:url(#SVGID_4_);}
	.st1{clip-path:url(#SVGID_5_);}
	.st2{fill:#1D1D1B;}
	.st3{clip-path:url(#SVGID_7_);fill:url(#SVGID_8_);}
	.st4{clip-path:url(#SVGID_10_);}
</style>
<defs>
</defs>
<g>
	<defs>
		
			<rect id="SVGID_2_" x="5.258" y="27.432" transform="matrix(0.9925 -0.1219 0.1219 0.9925 -3.956 10.081)" width="150.351" height="19.898"/>
	</defs>
	<clipPath id="SVGID_3_">
		<use xlink:href="#SVGID_2_"  style="overflow:visible;"/>
	</clipPath>
	
		<linearGradient id="SVGID_4_" gradientUnits="userSpaceOnUse" x1="-5570.6025" y1="3679.4421" x2="-5569.6025" y2="3679.4421" gradientTransform="matrix(149.2304 -18.3232 -18.3232 -149.2304 898728.125 447059.9375)">
		<stop  offset="0" style="stop-color:#CAF8E3"/>
		<stop  offset="0.022" style="stop-color:#CAF8E3"/>
		<stop  offset="0.1352" style="stop-color:#CAF3E5"/>
		<stop  offset="0.2689" style="stop-color:#CCE5EC"/>
		<stop  offset="0.4125" style="stop-color:#CECDF7"/>
		<stop  offset="0.4949" style="stop-color:#D0BCFF"/>
		<stop  offset="0.7944" style="stop-color:#EDB5FF"/>
		<stop  offset="0.9886" style="stop-color:#FBB1FF"/>
		<stop  offset="1" style="stop-color:#FBB1FF"/>
	</linearGradient>
	<polygon class="st0" points="0,18.91 154.008,0 160.866,55.852 6.858,74.762 	"/>
</g>
<g>
	<defs>
		<rect id="SVGID_1_" x="4.605" y="17.012" width="151.655" height="39.405"/>
	</defs>
	<clipPath id="SVGID_5_">
		<use xlink:href="#SVGID_1_"  style="overflow:visible;"/>
	</clipPath>
	<g class="st1">
		<path class="st2" d="M25.192,47.072l2.267-0.278l-0.069-0.567l0.566-0.07l-0.069-0.566l1.134-0.139l0.14,1.134l-0.567,0.07
			l0.069,0.566l-0.566,0.069l0.069,0.566l-3.4,0.417l-0.069-0.566l-0.567,0.07l-0.069-0.566l-0.566,0.069l-0.696-5.669l0.566-0.069
			l-0.069-0.566l0.567-0.07l-0.07-0.566l3.4-0.417l0.07,0.566l0.566-0.069l0.07,0.566l0.566-0.07l0.14,1.135l-1.134,0.139
			l-0.07-0.567l-0.566,0.07l-0.07-0.567l-2.267,0.278l0.069,0.567l-0.566,0.069l0.557,4.534l0.566-0.069L25.192,47.072z"/>
		<path class="st2" d="M32.983,39.786l-0.07-0.566l3.401-0.417l0.069,0.566l0.566-0.07l0.07,0.566l0.566-0.069l0.696,5.669
			l-0.567,0.069l0.069,0.566l-0.566,0.07l0.07,0.566l-3.401,0.417l-0.069-0.566l-0.567,0.07l-0.069-0.566l-0.566,0.069l-0.696-5.669
			l0.566-0.069l-0.069-0.566L32.983,39.786z M35.886,40.005l-2.267,0.278l0.069,0.567l-0.567,0.069l0.557,4.534l0.567-0.069
			l0.069,0.567l2.268-0.278l-0.07-0.567l0.567-0.07l-0.557-4.534l-0.567,0.07L35.886,40.005z"/>
		<path class="st2" d="M42.454,41.5l0.557,4.534l-1.133,0.139l-0.975-7.935l1.133-0.139l0.209,1.7l0.566-0.069l0.07,0.567
			l0.567-0.07l0.069,0.565l0.566-0.07l0.069,0.567l0.567-0.069l0.069,0.567l0.566-0.07l0.07,0.566l0.566-0.069l-0.557-4.534
			l1.134-0.139l0.974,7.935l-1.133,0.139l-0.209-1.7l-0.567,0.069l-0.069-0.566l-0.566,0.07l-0.07-0.567l-0.566,0.069l-0.069-0.566
			l-0.566,0.07l-0.07-0.566l-0.567,0.07L43.02,41.43L42.454,41.5z"/>
		<path class="st2" d="M52.432,37.973l-2.268,0.278l-0.139-1.133l5.668-0.696l0.139,1.133l-2.267,0.278l0.835,6.802l-1.134,0.139
			L52.432,37.973z"/>
		<path class="st2" d="M61.257,43.794l-1.134,0.139l-0.695-5.667l0.566-0.07l-0.07-0.567l0.567-0.069l-0.069-0.567l0.566-0.07
			l-0.069-0.566l0.566-0.07l-0.069-0.566l1.134-0.139l0.069,0.566l0.566-0.07l0.07,0.566l0.566-0.07l0.069,0.567l0.566-0.069
			l0.07,0.567l0.567-0.07l0.695,5.667l-1.134,0.139l-0.278-2.267l-3.4,0.418L61.257,43.794z M60.84,40.393l3.4-0.418l-0.209-1.701
			l-0.567,0.07l-0.069-0.565l-0.566,0.07l-0.069-0.567l-1.134,0.139l0.069,0.567l-0.566,0.07l0.069,0.565l-0.566,0.07L60.84,40.393z
			"/>
		<path class="st2" d="M70.807,41.471l2.268-0.278l-0.069-0.567l0.566-0.07l-0.069-0.566l1.134-0.139l0.139,1.134l-0.566,0.07
			l0.069,0.566l-0.566,0.069l0.069,0.566l-3.4,0.418l-0.07-0.566l-0.566,0.069l-0.069-0.566l-0.566,0.069l-0.696-5.669l0.566-0.069
			l-0.069-0.566l0.566-0.069l-0.069-0.566l3.401-0.418l0.069,0.566l0.566-0.069l0.069,0.566l0.566-0.07l0.14,1.135l-1.133,0.139
			l-0.07-0.567l-0.566,0.07l-0.069-0.567l-2.268,0.278l0.069,0.567l-0.566,0.07l0.557,4.534l0.566-0.07L70.807,41.471z"/>
		<path class="st2" d="M79.801,34.612l-2.267,0.278l-0.14-1.133l5.668-0.696l0.14,1.133l-2.267,0.278l0.835,6.802l-1.134,0.139
			L79.801,34.612z"/>
		<path class="st2" d="M92.187,31.942l0.14,1.133l-4.535,0.557l0.279,2.268l3.4-0.417l0.139,1.134l-3.4,0.417l0.278,2.268
			l4.534-0.557l0.14,1.133l-5.668,0.696l-0.975-7.935L92.187,31.942z"/>
		<path class="st2" d="M100.385,32.661l-0.069-0.567l-4.534,0.557l-0.139-1.133l5.668-0.696l0.278,2.268l-0.567,0.069l0.069,0.565
			l-0.566,0.07l0.069,0.567l-0.566,0.069l0.069,0.567l-0.567,0.07l0.07,0.566l-0.567,0.069l0.069,0.566l-0.566,0.07l0.07,0.567
			l-0.567,0.069l0.069,0.566l-0.566,0.07l0.069,0.567l4.535-0.557l0.139,1.133l-5.668,0.696l-0.278-2.267l0.566-0.069l-0.069-0.567
			l0.566-0.07l-0.069-0.566l0.567-0.07l-0.07-0.566l0.567-0.069l-0.07-0.567l0.566-0.07l-0.069-0.567l0.567-0.069l-0.069-0.565
			l0.566-0.07l-0.069-0.567L100.385,32.661z"/>
		<path class="st2" d="M110.284,33.171l0.14,1.134l-4.534,0.557l-0.14-1.134L110.284,33.171z"/>
		<path class="st2" d="M115.997,37.072l-1.134,0.139l-0.974-7.935l1.133-0.139l0.14,1.133l0.566-0.07l0.069,0.567l0.567-0.069
			l0.069,0.567l1.134-0.14l-0.069-0.567l0.566-0.069l-0.07-0.567l0.567-0.069l-0.14-1.133l1.135-0.14l0.974,7.935l-1.134,0.14
			l-0.626-5.102l-0.567,0.069l0.07,0.567l-0.566,0.069l0.139,1.134l-1.134,0.14l-0.14-1.134l-0.566,0.069l-0.069-0.567l-0.566,0.07
			L115.997,37.072z"/>
		<path class="st2" d="M124.215,28.584l-0.07-0.566l3.401-0.417l0.069,0.566l0.566-0.069l0.07,0.566l0.566-0.07l0.696,5.669
			l-0.567,0.07l0.069,0.566l-0.566,0.069l0.07,0.566l-3.401,0.417l-0.069-0.566l-0.567,0.07l-0.069-0.566l-0.566,0.07l-0.696-5.669
			l0.566-0.07l-0.069-0.566L124.215,28.584z M127.119,28.802l-2.267,0.278l0.069,0.567l-0.567,0.069l0.557,4.534l0.567-0.069
			l0.069,0.567l2.268-0.278l-0.07-0.567l0.567-0.07l-0.557-4.534l-0.567,0.07L127.119,28.802z"/>
		<path class="st2" d="M134.243,34.832l-0.139-1.133l1.134-0.139l-0.696-5.669l-1.134,0.139l-0.14-1.133l3.401-0.417l0.14,1.133
			l-1.135,0.139l0.696,5.669l1.134-0.139l0.14,1.133L134.243,34.832z"/>
	</g>
</g>
</svg>