<!-- Generator: Adobe Illustrator 21.1.0, SVG Export Plug-In  -->
<svg version="1.1"
	 xmlns="http://www.w3.org/2000/svg" xmlns:xlink="http://www.w3.org/1999/xlink" xmlns:a="http://ns.adobe.com/AdobeSVGViewerExtensions/3.0/"
	 x="0px" y="0px" width="168.056px" height="13.844px" viewBox="0 0 168.056 13.844"
	 style="enable-background:new 0 0 168.056 13.844;" xml:space="preserve">
<style type="text/css">
	.st0{clip-path:url(#SVGID_2_);fill:url(#SVGID_3_);}
	.st1{clip-path:url(#SVGID_5_);fill:url(#SVGID_6_);}
</style>
<defs>
</defs>
<g>
	<defs>
		<path id="SVGID_1_" d="M165.605,9.729c0,0.659,0.549,1.207,1.225,1.207c0.677,0,1.226-0.548,1.226-1.207
			c0-0.677-0.549-1.225-1.226-1.225C166.154,8.504,165.605,9.052,165.605,9.729 M10.807,4.042l1.061,1.042v4.627l-1.097,1.079h4.426
			l-1.08-1.079V2.908L10.807,4.042z M51.734,4.042l1.06,1.042v4.627l-1.097,1.079h4.425l-1.079-1.079V2.908L51.734,4.042z
			 M99.517,4.042l1.061,1.042v4.627l-1.097,1.079h4.425l-1.079-1.079V2.908L99.517,4.042z M116.743,4.042l1.061,1.042v4.627
			l-1.097,1.079h4.425l-1.079-1.079V2.908L116.743,4.042z M134.884,4.042l1.06,1.042v3.183l-0.75,0.731
			c-0.42,0.402-0.749,0.585-1.006,0.585c-0.493,0-0.64-0.439-0.64-0.676V2.908l-3.31,1.134l1.061,1.042v4.115
			c0,0.768,0.732,1.829,2.012,1.829c0.512,0,1.17-0.128,1.975-0.933l0.658-0.658v1.353h3.328l-1.079-1.079V2.908L134.884,4.042z
			 M19.457,3.677L18.799,4.39V2.908l-3.31,1.134l1.061,1.042v4.627l-1.098,1.079h4.426l-1.079-1.079V5.798l1.463-1.609l1.883,1.883
			V2.981c-0.237-0.054-0.622-0.109-0.749-0.109C20.554,2.872,19.823,3.292,19.457,3.677 M48.424,3.677L47.765,4.39V2.908
			l-3.309,1.134l1.06,1.042v4.627l-1.097,1.079h4.425l-1.079-1.079V5.798l1.463-1.609l1.884,1.883V2.981
			c-0.238-0.054-0.622-0.109-0.75-0.109C49.521,2.872,48.789,3.292,48.424,3.677 M161.765,3.677l-0.659,0.713V2.908l-3.309,1.134
			l1.06,1.042v4.627l-1.097,1.079h4.425l-1.079-1.079V5.798l1.464-1.609l1.883,1.883V2.981c-0.237-0.054-0.622-0.109-0.749-0.109
			C162.862,2.872,162.13,3.292,161.765,3.677 M31.271,6.913c0,2.139,1.791,4.115,3.804,4.115c1.298,0,2.047-0.293,2.981-1.134
			l-0.622-0.622c-0.549,0.622-1.189,0.75-1.701,0.75c-1.317,0-1.829-0.915-1.829-3.109c0-1.865,0.037-3.126,1.28-3.126
			c0.567,0,0.823,0.054,1.207,0.438l1.628,1.628V3.53c-1.007-0.658-1.792-0.713-2.944-0.713C33.044,2.817,31.271,4.755,31.271,6.913
			 M56.689,6.913c0,2.139,1.792,4.115,3.804,4.115c1.298,0,2.048-0.293,2.98-1.134l-0.621-0.622c-0.549,0.622-1.189,0.75-1.701,0.75
			c-1.316,0-1.828-0.915-1.828-3.109c0-1.865,0.036-3.126,1.279-3.126c0.567,0,0.824,0.054,1.207,0.438l1.628,1.628V3.53
			c-1.006-0.658-1.792-0.713-2.944-0.713C58.463,2.817,56.689,4.755,56.689,6.913 M26.571,3.695c0.713,0,1.353,0.896,1.353,1.554
			c0,0.202-0.073,0.457-0.182,0.622h-2.341C25.401,4.792,25.693,3.695,26.571,3.695 M22.767,6.913c0,2.176,1.701,4.115,3.804,4.115
			c2.048,0,2.945-0.75,3.584-1.518L29.57,8.907c-0.274,0.365-0.804,1.097-2.25,1.097c-1.846,0-1.919-1.061-1.919-3.183h4.955
			c0-2.486-1.682-4.078-3.785-4.078C24.359,2.743,22.767,4.719,22.767,6.913 M68.155,3.695c0.713,0,1.353,0.896,1.353,1.554
			c0,0.202-0.073,0.457-0.183,0.622h-2.341C66.984,4.792,67.278,3.695,68.155,3.695 M64.351,6.913c0,2.176,1.701,4.115,3.804,4.115
			c2.049,0,2.944-0.75,3.584-1.518l-0.585-0.603c-0.274,0.365-0.805,1.097-2.249,1.097c-1.847,0-1.921-1.061-1.921-3.183h4.957
			c0-2.486-1.683-4.078-3.786-4.078C65.942,2.743,64.351,4.719,64.351,6.913 M143.533,3.695c0.714,0,1.353,0.896,1.353,1.554
			c0,0.202-0.072,0.457-0.182,0.622h-2.341C142.363,4.792,142.655,3.695,143.533,3.695 M139.729,6.913
			c0,2.176,1.701,4.115,3.804,4.115c2.048,0,2.945-0.75,3.585-1.518l-0.585-0.603c-0.275,0.365-0.806,1.097-2.25,1.097
			c-1.847,0-1.92-1.061-1.92-3.183h4.955c0-2.486-1.682-4.078-3.785-4.078C141.321,2.743,139.729,4.719,139.729,6.913
			 M124.332,6.913c0-1.865,0.165-2.981,1.17-2.981c0.768,0,1.354,0.494,1.537,1.244V8.65c-0.183,0.769-0.769,1.262-1.537,1.262
			C124.497,9.912,124.332,8.797,124.332,6.913 M127.13,4.079c-0.531-0.75-1.353-1.354-2.286-1.354c-1.975,0-3.145,2.268-3.145,4.188
			c0,1.921,1.17,4.206,3.145,4.206c0.933,0,1.755-0.621,2.195-1.262v2.908l-1.079,1.079h4.407l-1.079-1.079V2.725L127.13,4.079z
			 M104.473,5.359c0,0.622,0.22,1.371,0.987,1.774l2.816,1.444c0.092,0.055,0.275,0.183,0.275,0.512c0,0.75-0.714,1.28-1.28,1.28
			c-0.457,0-0.732-0.274-0.732-0.274l-1.116-1.445l-1.243,1.646l2.286,0.732c0,0,0.458,0.128,1.006,0.128
			c1.627,0,2.798-1.079,2.798-2.689c0-1.042-0.512-1.646-1.006-1.919l-2.597-1.446c-0.402-0.218-0.402-0.493-0.402-0.548
			c0-0.64,0.677-1.042,1.189-1.042c0.255,0,0.457,0.073,0.585,0.238l1.042,1.352l1.152-1.645l-2.139-0.64
			c-0.275-0.074-0.585-0.129-0.915-0.129C105.826,2.688,104.473,3.567,104.473,5.359 M38.549,4.609h1.389v4.517
			c0,1.152,0.879,1.993,2.214,1.993c0.493,0,1.572-0.183,2.121-1.317l-0.53-0.53c-0.421,0.549-0.897,0.787-1.555,0.787v-5.98h2.14
			V3.128h-2.14V0.97L38.549,4.609z M93.336,4.609h1.39v4.517c0,1.152,0.877,1.993,2.213,1.993c0.493,0,1.572-0.183,2.121-1.317
			l-0.531-0.53c-0.42,0.549-0.895,0.787-1.554,0.787v-5.98h2.14V3.128h-2.14V0.97L93.336,4.609z M110.562,4.609h1.39v4.517
			c0,1.152,0.877,1.993,2.213,1.993c0.493,0,1.572-0.183,2.121-1.317l-0.531-0.53c-0.42,0.549-0.895,0.787-1.554,0.787v-5.98h2.14
			V3.128h-2.14V0.97L110.562,4.609z M11.868,1.208c0,0.603,0.512,1.115,1.115,1.115c0.622,0,1.134-0.512,1.134-1.115
			c0-0.622-0.512-1.134-1.134-1.134C12.38,0.074,11.868,0.586,11.868,1.208 M52.794,1.208c0,0.603,0.512,1.115,1.116,1.115
			c0.621,0,1.133-0.512,1.133-1.115c0-0.622-0.512-1.134-1.133-1.134C53.306,0.074,52.794,0.586,52.794,1.208 M100.578,1.208
			c0,0.603,0.512,1.115,1.115,1.115c0.622,0,1.134-0.512,1.134-1.115c0-0.622-0.512-1.134-1.134-1.134
			C101.09,0.074,100.578,0.586,100.578,1.208 M117.804,1.208c0,0.603,0.512,1.115,1.115,1.115c0.622,0,1.134-0.512,1.134-1.115
			c0-0.622-0.512-1.134-1.134-1.134C118.316,0.074,117.804,0.586,117.804,1.208 M3.401,1.116h1.171c1.939,0,2.669,2.286,2.669,4.28
			c0,1.992-0.73,4.278-2.669,4.278H3.401V1.116z M0,0l1.152,1.153v8.485L0,10.79h4.955c2.853,0,4.939-2.542,4.939-5.394
			C9.894,2.543,7.808,0,4.955,0H0z M80.865,3.146l1.188,3.566h-2.45L80.865,3.146z M80.663,0l-3.438,9.619l-1.17,1.171h3.657
			l-1.133-1.152l0.64-1.829h3.236l0.604,1.829l-1.134,1.152h4.645h4.261l-1.079-1.079V5.798l1.463-1.609l1.884,1.883V2.981
			c-0.238-0.054-0.622-0.109-0.75-0.109c-0.841,0-1.573,0.42-1.939,0.805L89.752,4.39V2.908l-3.31,1.134l1.061,1.042v4.627
			l-1.015,0.998L85.4,9.619L82.053,0H80.663z M152.658,0l1.152,1.153v10.698c0,0.548-0.329,0.932-0.823,1.097l-1.334-1.317
			l-1.628,2.213h3.054c1.719,0,2.981-1.536,2.981-3.273V1.153L157.23,0H152.658z"/>
	</defs>
	<clipPath id="SVGID_2_">
		<use xlink:href="#SVGID_1_"  style="overflow:visible;"/>
	</clipPath>
	
		<linearGradient id="SVGID_3_" gradientUnits="userSpaceOnUse" x1="-1820.1531" y1="-1987.7008" x2="-1819.1531" y2="-1987.7008" gradientTransform="matrix(168.0558 0 0 -168.0558 305887.1875 -334037.6562)">
		<stop  offset="0" style="stop-color:#D7F8E3"/>
		<stop  offset="0.022" style="stop-color:#D7F8E3"/>
		<stop  offset="0.1341" style="stop-color:#D6F3E5"/>
		<stop  offset="0.2666" style="stop-color:#D3E5EB"/>
		<stop  offset="0.4089" style="stop-color:#CDCDF5"/>
		<stop  offset="0.4949" style="stop-color:#C9BBFC"/>
		<stop  offset="0.735" style="stop-color:#DAB4FB"/>
		<stop  offset="0.9886" style="stop-color:#E8AFFB"/>
		<stop  offset="1" style="stop-color:#E8AFFB"/>
	</linearGradient>
	<rect class="st0" width="168.056" height="13.844"/>
</g>
</svg>