<!-- Generator: Adobe Illustrator 21.1.0, SVG Export Plug-In  -->
<svg version="1.1"
	 xmlns="http://www.w3.org/2000/svg" xmlns:xlink="http://www.w3.org/1999/xlink" xmlns:a="http://ns.adobe.com/AdobeSVGViewerExtensions/3.0/"
	 x="0px" y="0px" width="99.738px" height="55.397px" viewBox="0 0 99.738 55.397"
	 style="enable-background:new 0 0 99.738 55.397;" xml:space="preserve">
<style type="text/css">
	.st0{fill:#222221;}
</style>
<defs>
</defs>
<g>
	<g id="qaZcTZ_1_">
		<g id="XMLID_1_">
			<path id="XMLID_88_" class="st0" d="M18.732,2.484c-0.027-0.098-0.014-0.173,0.078-0.244c0.563-0.432,1.114-0.881,1.685-1.303
				c0.222-0.164,0.492-0.261,0.724-0.414C21.632,0.25,22.103,0.134,22.568,0c0.047,0,0.094,0,0.141,0
				c0.13,0.058,0.259,0.116,0.409,0.184c-0.054,0.105-0.089,0.172-0.127,0.246c0.033,0.025,0.056,0.056,0.086,0.064
				c0.345,0.099,0.647,0.246,0.844,0.578C24,1.203,24.164,1.285,24.3,1.4c-0.026,0.08-0.16,0.113-0.094,0.272
				c0.18,0.437,0.062,0.761-0.309,1.05c-0.236,0.184-0.426,0.393-0.557,0.686c-0.212,0.474-0.508,0.911-0.769,1.364
				c-0.018,0.03-0.05,0.055-0.059,0.087c-0.104,0.343-0.337,0.545-0.679,0.636c-0.053,0.014-0.12,0.055-0.14,0.1
				c-0.134,0.309-0.41,0.535-0.491,0.877c-0.028,0.119-0.115,0.228-0.188,0.332c-0.276,0.39-0.56,0.773-0.834,1.164
				c-0.035,0.05-0.024,0.132-0.04,0.197c-0.016,0.065-0.021,0.156-0.065,0.187c-0.145,0.102-0.179,0.261-0.257,0.402
				c-0.285,0.521-0.543,1.057-0.906,1.534c-0.137,0.18-0.207,0.411-0.319,0.612c-0.175,0.312-0.363,0.617-0.541,0.927
				c-0.099,0.172-0.191,0.347-0.281,0.524c-0.236,0.465-0.532,0.898-0.72,1.388c-0.033,0.086-0.093,0.162-0.147,0.238
				c-0.167,0.237-0.294,0.477-0.35,0.778c-0.084,0.457-0.328,0.857-0.65,1.2c-0.109,0.116-0.233,0.207-0.221,0.405
				c0.006,0.099-0.087,0.214-0.157,0.304c-0.182,0.236-0.265,0.495-0.305,0.794c-0.034,0.256-0.165,0.504-0.283,0.741
				c-0.144,0.289-0.336,0.556-0.479,0.846c-0.286,0.578-0.648,1.121-0.802,1.76c-0.014,0.058-0.074,0.11-0.124,0.152
				c-0.283,0.241-0.432,0.528-0.362,0.912c0.013,0.07-0.033,0.157-0.068,0.228c-0.036,0.073-0.119,0.13-0.133,0.204
				c-0.11,0.583-0.612,0.983-0.721,1.567c-0.02,0.107-0.111,0.204-0.18,0.298c-0.084,0.113-0.101,0.212-0.05,0.356
				c0.037,0.103,0.008,0.25-0.037,0.36c-0.158,0.388-0.335,0.768-0.514,1.173c0.2,0.026,0.303-0.104,0.421-0.207
				c0.096-0.083,0.196-0.166,0.307-0.227c0.046-0.026,0.124,0.005,0.23,0.013c-0.119,0.143-0.234,0.24-0.29,0.363
				c-0.059,0.13-0.061,0.286-0.098,0.484c0.12-0.086,0.23-0.134,0.295-0.218c0.228-0.293,0.433-0.604,0.659-0.898
				c0.426-0.555,0.86-1.106,1.296-1.653c0.046-0.057,0.151-0.129,0.199-0.112c0.261,0.097,0.357-0.106,0.49-0.244
				c0.275-0.283,0.47-0.616,0.646-0.969c0.106-0.212,0.269-0.432,0.466-0.553c0.251-0.155,0.3-0.434,0.498-0.617
				c0.185-0.171,0.31-0.405,0.469-0.605c0.071-0.089,0.171-0.158,0.112-0.347c-0.144,0.118-0.264,0.216-0.384,0.314
				c-0.013-0.014-0.025-0.028-0.038-0.042c0.083-0.12,0.158-0.247,0.251-0.36c0.26-0.314,0.526-0.622,0.782-0.922
				c0.413,0.107,0.663-0.045,0.767-0.432c0.019-0.072,0.063-0.144,0.112-0.202c0.075-0.089,0.165-0.165,0.246-0.25
				c0.199-0.21,0.198-0.21-0.017-0.434c0.111-0.144,0.223-0.289,0.335-0.433c0.015,0.005,0.03,0.01,0.045,0.015
				c-0.018,0.078-0.035,0.156-0.053,0.235c0.334,0.087,0.35,0.065,0.494-0.222c0.153-0.304,0.449-0.515,0.576-0.845
				c0.023-0.06,0.137-0.082,0.204-0.129c0.066-0.047,0.155-0.092,0.18-0.158c0.135-0.351,0.441-0.536,0.695-0.769
				c0.325,0.129,0.325,0.129,0.466-0.133c-0.073-0.043-0.146-0.086-0.257-0.151c0.459-0.487,0.899-0.947,1.329-1.415
				c0.126-0.137,0.223-0.299,0.334-0.449c0.065-0.088,0.134-0.195,0.035-0.279c-0.049-0.042-0.163-0.007-0.288-0.007
				c0.076-0.096,0.148-0.191,0.224-0.282c0.073-0.087,0.157-0.135,0.276-0.081c0.219,0.099,0.356-0.01,0.462-0.19
				c0.15-0.254,0.325-0.497,0.585-0.635c0.152-0.081,0.28-0.169,0.366-0.309c0.025-0.041-0.009-0.124-0.031-0.182
				c-0.004-0.01-0.084,0.008-0.128,0.014l0.003,0.004c-0.069-0.157,0.04-0.231,0.14-0.311c0.282,0.186,0.282,0.186,0.516-0.048
				c0.135-0.135,0.342-0.207,0.385-0.429c-0.106-0.132-0.225-0.059-0.32-0.014c-0.097,0.047-0.176,0.134-0.309,0.242
				c0-0.105-0.013-0.175,0.002-0.181c0.332-0.142,0.544-0.426,0.796-0.663c0.016-0.015,0.04-0.02,0.084-0.041
				c-0.017,0.123-0.18,0.263-0.006,0.341c0.135,0.061,0.256-0.012,0.355-0.137c0.172-0.217,0.365-0.418,0.555-0.632
				c-0.1-0.232-0.239-0.078-0.366-0.032c0.112-0.302,0.505-0.643,0.944-0.824c-0.127,0.158-0.254,0.316-0.391,0.487
				c0.185,0.091,0.316-0.004,0.428-0.12c0.134-0.139,0.365-0.227,0.295-0.545c-0.131,0.072-0.236,0.129-0.34,0.186
				c0.15-0.192,0.3-0.384,0.448-0.577c0.041-0.054,0.074-0.113,0.127-0.195c-0.138-0.061-0.206-0.088-0.326,0.048
				c-0.23,0.26-0.508,0.48-0.769,0.712C26.876,8.9,26.772,8.88,26.656,8.743c0.247-0.222,0.484-0.454,0.741-0.661
				c0.416-0.335,0.854-0.642,1.263-0.985c0.18-0.151,0.358-0.284,0.573-0.383c0.356-0.163,0.66,0.002,0.977,0.108
				c0.204,0.409,0.659,0.498,0.976,0.764c0.298,0.25,0.365,0.574,0.234,0.952c-0.112,0.327-0.188,0.673-0.229,1.016
				c-0.078,0.647-0.319,1.235-0.585,1.818c-0.031,0.069-0.1,0.143-0.168,0.168c-0.188,0.069-0.265,0.211-0.325,0.385
				c-0.068,0.197-0.158,0.371-0.329,0.522c-0.141,0.124-0.197,0.347-0.282,0.531c-0.057,0.124-0.099,0.255-0.156,0.406
				c0.033,0.026,0.084,0.065,0.158,0.123c-0.301,0.365-0.526,0.79-0.99,1.005c-0.117,0.054-0.183,0.225-0.265,0.347
				c-0.185,0.274-0.378,0.544-0.544,0.829c-0.252,0.433-0.484,0.877-0.725,1.316c-0.017,0.031-0.028,0.068-0.052,0.092
				c-0.42,0.421-0.571,1.001-0.877,1.49c-0.357,0.571-0.655,1.179-0.983,1.769c-0.032,0.057-0.092,0.105-0.15,0.139
				c-0.233,0.14-0.381,0.301-0.422,0.607c-0.029,0.217-0.206,0.447-0.377,0.607c-0.297,0.277-0.507,0.581-0.556,1.004
				c-0.059,0.016-0.126,0.032-0.192,0.052c-0.135,0.041-0.183,0.121-0.145,0.267c0.074,0.282-0.094,0.507-0.22,0.728
				c-0.064,0.112-0.21,0.169-0.207,0.339c0.001,0.068-0.07,0.143-0.121,0.205c-0.218,0.269-0.46,0.52-0.656,0.805
				c-0.15,0.219-0.387,0.398-0.363,0.724c0.007,0.086-0.138,0.214-0.241,0.272c-0.166,0.093-0.293,0.218-0.334,0.389
				c-0.092,0.387-0.357,0.672-0.548,1c-0.175,0.301-0.382,0.584-0.549,0.89c-0.221,0.407-0.417,0.828-0.622,1.243
				c-0.082,0.166-0.162,0.332-0.252,0.518c0.081,0.025,0.142,0.044,0.202,0.063c-0.005,0.025-0.003,0.05-0.014,0.067
				c-0.383,0.608-0.769,1.214-1.151,1.823c-0.179,0.286-0.433,0.559-0.506,0.872c-0.125,0.53-0.478,0.919-0.703,1.382
				c-0.08,0.165-0.196,0.313-0.28,0.476c-0.039,0.076-0.041,0.171-0.073,0.318c0.184-0.053,0.314-0.09,0.444-0.127
				c-0.013,0.095-0.026,0.19-0.041,0.305c0.246-0.027,0.294-0.176,0.38-0.398c-0.151,0.043-0.242,0.069-0.333,0.095
				c0.225-0.715,0.59-1.351,1.075-1.92c0.03-0.035,0.074-0.069,0.08-0.109c0.04-0.239,0.208-0.39,0.37-0.54
				c0.166-0.154,0.274-0.328,0.367-0.54c0.134-0.305,0.354-0.573,0.534-0.859c0.089-0.141,0.17-0.287,0.255-0.431
				c0.233,0.134,0.127,0.275,0.05,0.375c-0.371,0.479-0.674,0.999-0.976,1.522c-0.145,0.251-0.331,0.48-0.499,0.718
				c-0.141,0.199-0.288,0.394-0.42,0.599c-0.04,0.062-0.038,0.151-0.071,0.295c0.262-0.206,0.402-0.425,0.539-0.642
				c0.162-0.255,0.276-0.541,0.53-0.732c0.049-0.037,0.058-0.123,0.092-0.183c0.18-0.312,0.433-0.573,0.603-0.896
				c0.105-0.2,0.304-0.351,0.46-0.524c-0.003,0.366-0.162,0.663-0.409,0.919c-0.095,0.098-0.227,0.174-0.289,0.289
				c-0.099,0.183-0.152,0.39-0.23,0.601c0.051-0.008,0.1-0.001,0.115-0.021c0.256-0.345,0.506-0.695,0.762-1.041
				c0.068-0.092,0.137-0.205,0.233-0.25c0.397-0.189,0.577-0.548,0.681-0.925c0.066-0.237,0.164-0.436,0.285-0.642
				c0.099-0.168,0.217-0.279,0.387-0.377c0.175-0.1,0.417-0.206,0.298-0.508c-0.018-0.045,0.04-0.123,0.068-0.183
				c0.14-0.309,0.394-0.536,0.583-0.809c0.093-0.135,0.28-0.259,0.179-0.491c-0.229,0.066-0.377,0.201-0.478,0.399
				c-0.058,0.113-0.119,0.225-0.193,0.328c-0.142,0.198-0.307,0.38-0.439,0.584c-0.126,0.195-0.162,0.437-0.338,0.614
				c-0.135,0.135-0.231,0.309-0.345,0.465c-0.034,0.047-0.082,0.087-0.104,0.138c-0.162,0.376-0.461,0.735-0.773,0.919
				c0.014-0.068,0.01-0.146,0.045-0.202c0.159-0.257,0.328-0.509,0.496-0.76c0.149-0.223,0.299-0.445,0.452-0.664
				c0.16-0.229,0.328-0.453,0.488-0.682c0.066-0.094,0.116-0.199,0.184-0.291c0.123-0.167,0.256-0.327,0.38-0.494
				c0.111-0.15,0.292-0.297,0.307-0.458c0.03-0.327,0.313-0.419,0.469-0.624c0.025-0.033,0.121-0.013,0.184-0.018
				c-0.008,0.063,0.008,0.158-0.028,0.185c-0.15,0.113-0.245,0.245-0.255,0.496c0.166-0.068,0.305-0.126,0.45-0.186
				c0.013-0.081,0.032-0.15,0.034-0.218c0.004-0.134,0.063-0.204,0.192-0.256c0.185-0.074,0.352-0.187,0.391-0.429
				c-0.128-0.072-0.249-0.002-0.363,0.028c-0.119,0.031-0.229,0.095-0.411,0.173c0.053-0.136,0.07-0.21,0.107-0.272
				c0.273-0.458,0.504-0.951,0.84-1.359c0.262-0.318,0.548-0.608,0.757-0.972c0.099-0.172,0.302-0.266,0.511-0.345
				c0.215-0.082,0.388-0.276,0.58-0.421c-0.011-0.022-0.022-0.045-0.033-0.067c-0.106,0.014-0.213,0.028-0.356,0.048
				c0-0.079-0.03-0.173,0.005-0.224c0.327-0.488,0.735-0.919,1.002-1.451c0.077-0.153,0.238-0.244,0.464-0.266
				c-0.033,0.096-0.039,0.182-0.085,0.234c-0.166,0.191-0.356,0.362-0.516,0.558c-0.113,0.139-0.191,0.306-0.299,0.483
				c0.31,0.071,0.385-0.135,0.494-0.29c0.171,0.168,0.171,0.168,0.263-0.068c-0.1,0.028-0.186,0.052-0.271,0.077
				c0.134-0.13,0.209-0.352,0.467-0.285c0.03,0.008,0.089-0.036,0.113-0.07c0.138-0.196,0.27-0.397,0.409-0.603
				c-0.069-0.034-0.118-0.059-0.168-0.084c0.085-0.153,0.197-0.22,0.376-0.288c0.215-0.081,0.398-0.324,0.528-0.537
				c0.137-0.224,0.286-0.39,0.578-0.444c-0.09-0.208,0.01-0.346,0.132-0.493c0.207-0.249,0.404-0.509,0.584-0.779
				c0.344-0.517,0.71-1.019,1.109-1.495c0.287-0.343,0.625-0.644,0.909-0.991c0.224-0.274,0.458-0.537,0.691-0.802
				c0.25-0.284,0.486-0.577,0.754-0.851c0.302-0.309,0.656-0.596,0.813-1.029c0.065-0.18,0.232-0.182,0.382-0.183
				c0.311-0.002,0.376-0.089,0.349-0.379c-0.022-0.237,0.071-0.467,0.268-0.609c0.273-0.196,0.538-0.381,0.738-0.67
				c0.16-0.232,0.412-0.401,0.624-0.597c0.043-0.039,0.105-0.068,0.128-0.117c0.159-0.336,0.45-0.554,0.706-0.801
				c0.15-0.145,0.346-0.247,0.481-0.404c0.207-0.24,0.378-0.51,0.538-0.797c-0.501,0.174-0.965,0.396-1.361,0.755
				c0.204-0.325,0.501-0.552,0.769-0.805c0.277-0.262,0.523-0.551,0.824-0.793c0.29-0.233,0.521-0.539,0.761-0.865
				c-0.102,0.033-0.266,0.038-0.296,0.104c-0.149,0.325-0.496,0.418-0.715,0.658c-0.212,0.231-0.456,0.435-0.693,0.641
				c-0.081,0.07-0.187,0.111-0.313,0.117c0.355-0.338,0.709-0.676,1.065-1.013c0.068-0.065,0.138-0.127,0.21-0.188
				c0.407-0.345,0.808-0.697,1.223-1.032c0.315-0.255,0.638-0.503,0.978-0.724c0.159-0.103,0.366-0.133,0.564-0.201
				c-0.027-0.112-0.052-0.213-0.081-0.334c0.425,0.023,0.731,0.236,0.999,0.531c0.059,0.065,0.141,0.11,0.215,0.162
				c0.134,0.093,0.308,0.156,0.394,0.281c0.113,0.164,0.259,0.22,0.449,0.258c0,0.103,0.028,0.206-0.005,0.282
				c-0.136,0.316-0.117,0.662-0.202,0.984c-0.145,0.551-0.316,1.098-0.52,1.63c-0.18,0.468-0.405,0.921-0.639,1.366
				c-0.194,0.368-0.443,0.707-0.643,1.072c-0.23,0.417-0.419,0.857-0.652,1.273c-0.295,0.526-0.621,1.035-0.923,1.556
				c-0.152,0.262-0.277,0.539-0.424,0.805c-0.248,0.449-0.495,0.898-0.757,1.339c-0.189,0.319-0.417,0.615-0.599,0.937
				c-0.223,0.393-0.411,0.806-0.624,1.205c-0.081,0.153-0.198,0.286-0.281,0.438c-0.11,0.203-0.189,0.422-0.305,0.621
				c-0.363,0.625-0.742,1.241-1.103,1.867c-0.202,0.349-0.373,0.715-0.575,1.064c-0.104,0.18-0.218,0.33-0.143,0.568
				c0.028,0.088-0.094,0.23-0.16,0.34c-0.156,0.26-0.334,0.508-0.474,0.776c-0.107,0.204-0.225,0.372-0.497,0.405
				c0.162,0.208,0.08,0.374-0.014,0.548c-0.154,0.285-0.287,0.581-0.443,0.865c-0.218,0.398-0.447,0.79-0.674,1.183
				c-0.074,0.128-0.256,0.116-0.315,0.302c-0.123,0.384-0.267,0.773-0.477,1.115c-0.233,0.379-0.258,0.831-0.509,1.2
				c-0.263,0.385-0.489,0.796-0.721,1.201c-0.102,0.177-0.223,0.359-0.26,0.553c-0.097,0.508-0.395,0.918-0.608,1.369
				c-0.229,0.483-0.458,0.967-0.686,1.45c-0.005,0.01-0.002,0.025-0.008,0.034c-0.238,0.323-0.331,0.712-0.495,1.069
				c-0.203,0.443-0.392,0.89-0.677,1.298c-0.174,0.248-0.233,0.578-0.335,0.875c-0.112,0.327-0.215,0.656-0.315,0.987
				c-0.019,0.062-0.003,0.135-0.003,0.213c0.246,0.07,0.447-0.048,0.647-0.116c0.298-0.101,0.583-0.242,0.876-0.361
				c0.093-0.038,0.192-0.06,0.302-0.063c-0.105,0.199-0.234,0.36-0.448,0.435c-0.099,0.035-0.199,0.071-0.294,0.116
				c-0.164,0.077-0.221,0.197-0.128,0.389c0.051,0,0.105,0.004,0.158-0.001c0.055-0.005,0.108-0.018,0.163-0.027
				c0.006,0.022,0.012,0.045,0.018,0.067c-0.113,0.044-0.224,0.094-0.339,0.13c-0.193,0.059-0.362,0.122-0.459,0.336
				c-0.057,0.127-0.203,0.22-0.321,0.313c-0.11,0.086-0.245,0.141-0.353,0.229c-0.097,0.08-0.172,0.233-0.315,0.169
				c-0.143-0.064-0.303-0.16-0.379-0.288c-0.104-0.175-0.202-0.306-0.418-0.322c-0.05-0.004-0.111-0.048-0.143-0.091
				c-0.484-0.635-0.784-1.342-0.793-2.151c-0.004-0.302-0.007-0.609,0.042-0.904c0.068-0.413,0.234-0.797,0.425-1.172
				c0.246-0.482,0.583-0.925,0.662-1.482c0.005-0.034,0.019-0.07,0.04-0.096c0.304-0.374,0.433-0.841,0.659-1.256
				c0.119-0.219,0.17-0.474,0.271-0.704c0.088-0.2,0.168-0.424,0.317-0.571c0.127-0.125,0.174-0.264,0.245-0.406
				c0.245-0.488,0.492-0.975,0.753-1.455c0.132-0.243,0.293-0.47,0.446-0.701c0.138-0.208,0.139-0.5,0.391-0.639
				c0.015-0.008,0.027-0.044,0.022-0.063c-0.081-0.307,0.134-0.468,0.313-0.65c0.056-0.057,0.109-0.126,0.137-0.2
				c0.208-0.552,0.542-1.032,0.831-1.54c0.253-0.443,0.584-0.847,0.735-1.347c0.022-0.073,0.086-0.141,0.146-0.192
				c0.117-0.101,0.212-0.201,0.232-0.369c0.017-0.149,0.137-0.234,0.269-0.299c0.131-0.065,0.216-0.152,0.223-0.322
				c0.005-0.128,0.025-0.279,0.207-0.328c0.039-0.011,0.06-0.142,0.065-0.219c0.012-0.182,0.056-0.344,0.19-0.476
				c0.033-0.032,0.07-0.072,0.079-0.114c0.114-0.519,0.528-0.872,0.739-1.334c0.153-0.336,0.493-0.558,0.549-0.957
				c0.017-0.121,0.164-0.219,0.233-0.339c0.312-0.546,0.608-1.102,0.929-1.642c0.229-0.385,0.41-0.798,0.692-1.152
				c0.087-0.109,0.164-0.235,0.206-0.366c0.084-0.26,0.222-0.451,0.493-0.539c0.055-0.018,0.115-0.095,0.128-0.155
				c0.046-0.215,0.144-0.385,0.332-0.504c0.037-0.023,0.057-0.073,0.099-0.129c-0.081-0.034-0.152-0.064-0.225-0.094
				c-0.079,0.095-0.149,0.179-0.24,0.288c0.003-0.23,0.003-0.23,0.687-0.771c-0.049-0.083-0.1-0.168-0.167-0.28
				c0.193-0.149,0.374-0.289,0.581-0.447c-0.092-0.044-0.156-0.075-0.235-0.113c0.118-0.182,0.236-0.347,0.335-0.523
				c0.097-0.17,0.163-0.358,0.264-0.526c0.206-0.343,0.427-0.677,0.641-1.014c0.006-0.01,0.017-0.024,0.014-0.031
				c-0.095-0.236,0.09-0.369,0.194-0.534c0.105-0.166,0.207-0.333,0.304-0.503c0.222-0.391,0.442-0.783,0.659-1.177
				c0.033-0.06,0.062-0.131,0.064-0.198c0.003-0.072-0.005-0.183-0.049-0.209c-0.053-0.031-0.149,0.006-0.225,0.02
				c-0.02,0.004-0.042,0.025-0.054,0.044c-0.305,0.489-0.87,0.704-1.217,1.151c-0.125,0.161-0.274,0.302-0.404,0.46
				c-0.355,0.43-0.801,0.767-1.161,1.201c-0.558,0.672-1.208,1.268-1.811,1.903c-0.151,0.159-0.284,0.339-0.402,0.525
				c-0.158,0.249-0.375,0.428-0.601,0.611c-0.166,0.135-0.269,0.347-0.405,0.521c-0.301,0.383-0.602,0.766-0.909,1.144
				c-0.152,0.188-0.333,0.35-0.414,0.592c-0.026,0.079-0.12,0.14-0.192,0.197c-0.306,0.244-0.534,0.549-0.758,0.868
				c-0.338,0.482-0.724,0.931-1.09,1.393c-0.058,0.073-0.14,0.135-0.175,0.218c-0.182,0.424-0.494,0.748-0.791,1.088
				c-0.321,0.367-0.683,0.727-0.891,1.156c-0.195,0.401-0.525,0.667-0.747,1.017c-0.342,0.539-0.802,0.992-1.06,1.601
				c-0.196,0.463-0.568,0.854-0.871,1.27c-0.403,0.554-0.837,1.087-1.214,1.659c-0.136,0.206-0.184,0.47-0.396,0.637
				c-0.081,0.064-0.149,0.148-0.211,0.231c-0.097,0.13-0.189,0.264-0.276,0.4c-0.336,0.531-0.59,1.109-0.998,1.6
				c-0.304,0.365-0.542,0.784-0.814,1.175c-0.045,0.065-0.121,0.108-0.174,0.169c-0.06,0.068-0.157,0.146-0.156,0.218
				c0.002,0.188-0.119,0.295-0.206,0.432c-0.301,0.47-0.587,0.95-0.887,1.421c-0.219,0.344-0.452,0.678-0.676,1.018
				c-0.566,0.858-1.131,1.717-1.696,2.576c-0.032,0.049-0.055,0.107-0.096,0.147c-0.412,0.416-0.66,0.949-1.009,1.41
				c-0.285,0.377-0.509,0.8-0.779,1.189c-0.139,0.2-0.323,0.368-0.48,0.556c-0.096,0.115-0.18,0.24-0.266,0.363
				c-0.234,0.333-0.466,0.669-0.702,1c-0.017,0.024-0.063,0.026-0.12,0.048c-0.043-0.058-0.107-0.114-0.128-0.182
				c-0.022-0.075-0.038-0.107-0.125-0.132c-0.211-0.061-0.413-0.152-0.489-0.392c-0.013-0.043-0.039-0.107-0.07-0.114
				c-0.388-0.094-0.335-0.544-0.598-0.736c-0.009-0.007-0.022-0.019-0.021-0.027c0.062-0.316-0.175-0.564-0.198-0.854
				c-0.011-0.138,0.067-0.288,0.124-0.425c0.07-0.169,0.16-0.33,0.241-0.495c0.015-0.032,0.02-0.072,0.043-0.096
				c0.292-0.318,0.37-0.748,0.58-1.11c0.148-0.256,0.198-0.568,0.342-0.827c0.122-0.218,0.123-0.5,0.356-0.665
				c0.06-0.043,0.104-0.173,0.087-0.249c-0.033-0.15,0.037-0.236,0.108-0.348c0.153-0.24,0.282-0.496,0.421-0.745
				c0.08-0.143,0.166-0.282,0.241-0.427c0.11-0.214,0.175-0.462,0.325-0.641c0.325-0.386,0.364-0.89,0.595-1.313
				c0.142-0.26,0.373-0.49,0.363-0.821c0-0.011,0.004-0.026,0.012-0.033c0.393-0.334,0.433-0.868,0.723-1.27
				c0.216-0.299,0.373-0.656,0.525-1.008c0.217-0.499,0.534-0.955,0.805-1.431c0.062-0.11,0.1-0.235,0.171-0.338
				c0.3-0.434,0.448-0.948,0.758-1.381c0.227-0.316,0.376-0.688,0.561-1.035c0.032-0.061,0.071-0.117,0.105-0.177
				c0.136-0.24,0.268-0.482,0.409-0.719c0.117-0.197,0.243-0.389,0.366-0.583c0.025-0.039,0.06-0.073,0.079-0.114
				c0.15-0.325,0.297-0.652,0.447-0.978c0.029-0.063,0.054-0.131,0.096-0.186c0.514-0.677,0.846-1.458,1.258-2.193
				c0.152-0.271,0.351-0.518,0.487-0.796c0.309-0.633,0.629-1.256,1.005-1.857c0.16-0.257,0.254-0.571,0.425-0.837
				c0.238-0.37,0.467-0.744,0.701-1.116c0.006-0.01,0.019-0.018,0.02-0.028c0.072-0.526,0.51-0.838,0.741-1.271
				c0.118-0.222,0.186-0.47,0.279-0.706c0.026-0.065,0.043-0.148,0.092-0.187c0.282-0.224,0.353-0.569,0.515-0.861
				c0.145-0.261,0.313-0.51,0.453-0.774c0.105-0.198,0.183-0.412,0.282-0.641c-0.201-0.05-0.303,0.037-0.403,0.138
				c-0.487,0.489-0.986,0.965-1.459,1.466c-0.511,0.543-0.994,1.112-1.495,1.664c-0.218,0.24-0.463,0.458-0.677,0.702
				c-0.421,0.48-0.828,0.972-1.245,1.456c-0.265,0.308-0.545,0.603-0.802,0.917c-0.517,0.632-1.018,1.276-1.534,1.908
				c-0.359,0.44-0.732,0.868-1.099,1.301c-0.03,0.036-0.064,0.069-0.09,0.108c-0.223,0.341-0.222,0.342-0.605,0.425
				c0.015,0.049,0.029,0.096,0.049,0.162c-0.235,0.21-0.496,0.433-0.745,0.671c-0.106,0.101-0.2,0.223-0.271,0.351
				c-0.101,0.182-0.24,0.283-0.469,0.274c0.003,0.254-0.469,0.453,0.006,0.728c-0.416,0.337-0.632,0.821-1.118,1.035
				c-0.228,0.1-0.222,0.383-0.368,0.557c-0.094,0.112-0.133,0.268-0.202,0.402c-0.02,0.04-0.053,0.075-0.085,0.108
				c-0.176,0.182-0.345,0.371-0.532,0.541c-0.183,0.165-0.272,0.374-0.299,0.603c-0.022,0.191-0.145,0.279-0.287,0.308
				c-0.199,0.041-0.305,0.2-0.462,0.289c-0.373,0.211-0.428,0.658-0.708,0.937c-0.057,0.057-0.085,0.168-0.147,0.188
				c-0.272,0.086-0.368,0.317-0.5,0.532c-0.303,0.493-0.662,0.945-1.076,1.351c-0.05,0.049-0.098,0.101-0.137,0.159
				c-0.165,0.241-0.334,0.479-0.486,0.728c-0.358,0.587-0.819,1.093-1.238,1.633c-0.113,0.146-0.212,0.307-0.293,0.473
				c-0.218,0.449-0.59,0.78-0.874,1.178c-0.182,0.254-0.355,0.514-0.531,0.772c-0.026,0.038-0.036,0.096-0.071,0.119
				c-0.412,0.276-0.494,0.767-0.751,1.144c-0.055,0.08-0.055,0.197-0.085,0.296c-0.023,0.077-0.031,0.179-0.085,0.225
				c-0.317,0.269-0.343,0.673-0.502,1.015c-0.149,0.323-0.203,0.679-0.432,0.982c-0.129,0.171-0.118,0.467-0.12,0.708
				c-0.002,0.241-0.069,0.435-0.234,0.599c0.022,0.1,0.072,0.202,0.055,0.291c-0.015,0.075-0.109,0.134-0.167,0.201
				c-0.045,0.053-0.1,0.101-0.131,0.162c-0.128,0.246-0.249,0.495-0.371,0.744c-0.163,0.331-0.32,0.666-0.489,0.994
				c-0.076,0.148-0.175,0.285-0.266,0.432c-0.219-0.07-0.38-0.177-0.591-0.151c-0.078,0.01-0.191-0.144-0.262-0.243
				c-0.043-0.06-0.035-0.156-0.053-0.254c-0.124-0.025-0.245-0.05-0.371-0.075c0-0.325,0-0.636,0-0.965
				c-0.278-0.046-0.349-0.279-0.419-0.514c-0.049-0.163-0.041-0.346-0.223-0.457c-0.055-0.034-0.044-0.171-0.072-0.257
				c-0.069-0.211,0.016-0.477-0.257-0.647c0.352-0.104,0.459-0.404,0.619-0.66c0.099-0.159,0.216-0.306,0.315-0.465
				c0.116-0.187,0.219-0.384,0.332-0.573c0.179-0.299,0.385-0.584,0.539-0.896c0.169-0.344,0.422-0.636,0.53-1.022
				c0.082-0.296,0.296-0.553,0.438-0.834c0.39-0.769,0.77-1.544,1.16-2.313c0.147-0.29,0.332-0.561,0.464-0.856
				c0.26-0.579,0.637-1.096,0.849-1.705c0.135-0.39,0.395-0.736,0.587-1.108c0.287-0.558,0.563-1.121,0.845-1.681
				c0.309-0.614,0.616-1.229,0.934-1.839c0.215-0.412,0.451-0.812,0.668-1.222c0.135-0.255,0.252-0.519,0.377-0.779
				c0.02-0.042,0.035-0.089,0.063-0.125c0.435-0.558,0.573-1.267,0.948-1.856c0.197-0.31,0.365-0.638,0.544-0.959
				c0.057-0.102,0.107-0.209,0.158-0.314c0.1-0.206,0.146-0.427,0.34-0.598c0.135-0.119,0.174-0.344,0.262-0.519
				c0.121-0.24,0.24-0.481,0.373-0.713c0.073-0.128,0.174-0.24,0.263-0.359c0.035-0.046,0.086-0.085,0.105-0.136
				c0.19-0.511,0.394-1.015,0.731-1.453c0.047-0.062,0.074-0.146,0.089-0.224c0.031-0.163,0.095-0.287,0.234-0.398
				c0.095-0.076,0.114-0.24,0.179-0.359c0.233-0.427,0.473-0.852,0.707-1.279c0.05-0.092,0.08-0.195,0.132-0.285
				c0.043-0.075,0.102-0.143,0.16-0.209c0.029-0.032,0.092-0.045,0.104-0.08c0.235-0.664,0.651-1.228,0.984-1.838
				c0.118-0.217,0.144-0.485,0.324-0.671c0.405-0.418,0.559-0.996,0.928-1.437c0.028-0.033,0.047-0.084,0.049-0.128
				c0.025-0.546,0.395-0.927,0.644-1.367c0.212-0.374,0.414-0.754,0.615-1.134c0.065-0.122,0.113-0.253,0.18-0.403
				c-0.048-0.015-0.126-0.067-0.166-0.046c-0.234,0.122-0.469,0.247-0.684,0.4c-0.179,0.128-0.334,0.292-0.491,0.448
				c-0.074,0.073-0.128,0.166-0.189,0.252c-0.213,0.299-0.391,0.621-0.721,0.83c-0.159,0.1-0.266,0.282-0.393,0.43
				c-0.212,0.248-0.397,0.523-0.727,0.637c-0.029,0.01-0.057,0.039-0.074,0.067c-0.195,0.306-0.459,0.542-0.745,0.76
				c-0.098,0.075-0.167,0.188-0.255,0.277c-0.328,0.334-0.656,0.668-0.99,0.996c-0.349,0.342-0.711,0.671-1.059,1.014
				c-0.603,0.596-1.199,1.201-1.799,1.8c-0.121,0.121-0.257,0.213-0.275,0.419c-0.009,0.104-0.144,0.201-0.231,0.292
				c-0.4,0.421-0.795,0.847-1.209,1.255c-0.155,0.153-0.356,0.26-0.532,0.394C8.899,17.473,8.8,17.532,8.78,17.607
				c-0.111,0.413-0.456,0.643-0.716,0.935c-0.396,0.443-0.824,0.858-1.219,1.302c-0.672,0.757-1.339,1.52-1.986,2.298
				c-0.251,0.302-0.56,0.57-0.69,0.963c-0.018,0.053-0.054,0.109-0.098,0.144c-0.513,0.414-0.627,1.105-1.084,1.561
				C2.9,24.897,2.861,25.058,2.85,25.188c-0.024,0.275-0.198,0.483-0.473,0.51c-0.081,0.008-0.165,0.006-0.246-0.004
				c-0.08-0.01-0.159-0.036-0.256-0.06c0.02-0.179-0.022-0.308-0.227-0.361c-0.151-0.039-0.317-0.077-0.411-0.24
				c-0.143-0.248-0.302-0.489-0.451-0.73c-0.117-0.19-0.06-0.498-0.053-0.753c0.007-0.231-0.043-0.423-0.171-0.623
				c-0.083-0.13-0.081-0.327-0.083-0.494c-0.002-0.103-0.022-0.166-0.094-0.241c-0.135-0.142-0.227-0.306-0.246-0.518
				C0.124,21.505,0.045,21.341,0,21.195c0.269-0.32,0.516-0.625,0.777-0.918c0.063-0.071,0.185-0.158,0.255-0.141
				c0.199,0.05,0.311-0.039,0.419-0.173c0.102-0.127,0.203-0.255,0.307-0.38c0.14-0.169,0.282-0.335,0.396-0.563
				c-0.075,0.023-0.152,0.041-0.225,0.069c-0.104,0.038-0.206,0.083-0.308,0.125l0.006,0.008c0.292-0.569,0.759-1,1.163-1.48
				c0.26-0.309,0.588-0.56,0.789-0.92c0.033-0.06,0.087-0.112,0.142-0.154c0.521-0.4,0.912-0.921,1.338-1.412
				c0.198-0.228,0.431-0.425,0.649-0.636c0.351-0.34,0.646-0.736,1.066-1.006c0.113-0.073,0.193-0.203,0.273-0.318
				c0.081-0.117,0.172-0.185,0.331-0.144c-0.016,0.247-0.219,0.35-0.36,0.491c-0.312,0.311-0.652,0.596-0.952,0.918
				C5.593,15.066,5.149,15.6,4.68,16.111c-0.417,0.455-0.859,0.887-1.276,1.342c-0.266,0.29-0.505,0.606-0.76,0.906
				c-0.097,0.114-0.208,0.216-0.312,0.323c0.121,0.144,0.192,0.145,0.343,0.004c0.164-0.154,0.327-0.309,0.49-0.465
				c0.284-0.272,0.569-0.543,0.849-0.819c0.148-0.146,0.292-0.296,0.426-0.454c0.085-0.1,0.158-0.202,0.213-0.337
				c0.069-0.168,0.276-0.297,0.449-0.399c0.204-0.12,0.364-0.254,0.499-0.459c0.157-0.239,0.38-0.441,0.6-0.63
				c0.482-0.414,0.841-0.943,1.337-1.349c0.394-0.323,0.712-0.739,1.067-1.11c0.224-0.234,0.443-0.477,0.69-0.685
				c0.127-0.107,0.309-0.147,0.467-0.217c-0.019,0.064-0.037,0.129-0.064,0.22c0.195-0.023,0.221-0.12,0.227-0.268
				c-0.071,0.023-0.121,0.039-0.171,0.054c-0.024-0.04-0.047-0.079-0.055-0.091c0.237-0.288,0.453-0.568,0.689-0.831
				c0.121-0.135,0.281-0.236,0.416-0.36c0.118-0.108,0.231-0.223,0.336-0.343c0.168-0.192,0.251-0.205,0.488-0.114
				c0.072,0.027,0.205,0.014,0.252-0.035c0.183-0.193,0.343-0.408,0.509-0.617c0.007-0.009-0.014-0.041-0.036-0.098
				c-0.149,0.114-0.29,0.222-0.432,0.331c-0.013-0.014-0.027-0.028-0.04-0.042c0.169-0.193,0.338-0.385,0.508-0.578l-0.006-0.007
				c0.04,0.081,0.079,0.162,0.137,0.279c0.213-0.169,0.41-0.317,0.597-0.476c0.131-0.112,0.252-0.236,0.372-0.361
				c0.442-0.459,0.961-0.836,1.373-1.329c0.19-0.227,0.454-0.391,0.679-0.59c0.117-0.104,0.222-0.223,0.332-0.335
				c-0.012-0.023-0.024-0.046-0.036-0.069c-0.096,0.012-0.193,0.025-0.289,0.037l0.01,0.004c0.057-0.079,0.117-0.157,0.172-0.239
				c0.035-0.052,0.062-0.11,0.093-0.165l-0.002-0.002c0.034,0.085,0.068,0.17,0.101,0.253c0.34-0.099,1.562-1.136,1.781-1.516
				c-0.106-0.013-0.199-0.025-0.302-0.038c0.014-0.035,0.021-0.068,0.039-0.095c0.019-0.029,0.044-0.059,0.074-0.074
				c0.259-0.137,0.453-0.34,0.648-0.557c0.139-0.156,0.318-0.314,0.586-0.202c0.07,0.029,0.205-0.038,0.282-0.098
				c0.567-0.441,1.129-0.888,1.688-1.34c0.075-0.061,0.119-0.161,0.177-0.243l-0.012,0.011c0.129-0.052,0.264-0.092,0.384-0.16
				c0.253-0.143,0.499-0.298,0.742-0.455c0.049-0.032,0.075-0.099,0.075-0.209c-0.174,0.072-0.348,0.144-0.538,0.223
				c-0.039-0.103-0.062-0.166-0.084-0.224c0.03-0.023,0.049-0.049,0.065-0.047c0.092,0.007,0.2,0.057,0.274,0.025
				c0.336-0.146,0.663-0.315,1.004-0.481c-0.405-0.274-0.789-0.262-1.147,0.021c-0.046,0.036-0.089,0.081-0.142,0.101
				c-0.587,0.222-1.04,0.651-1.547,0.995c-0.268,0.182-0.538,0.362-0.806,0.545c-0.147,0.101-0.292,0.205-0.438,0.308L18.732,2.484z
				 M34.49,14.156c0.088-0.136,0.148-0.247,0.226-0.344c0.192-0.242,0.392-0.478,0.59-0.715c0.076-0.09,0.129-0.186-0.002-0.261
				c-0.117-0.067-0.165,0.028-0.202,0.121c-0.073,0.186-0.189,0.316-0.357,0.444c-0.248,0.19-0.499,0.417-0.581,0.788
				C34.296,14.176,34.408,14.165,34.49,14.156z M24.596,24.901c-0.271,0.15-0.978,1.153-1.022,1.448
				c0.136,0.095,0.25,0.053,0.325-0.074c0.114-0.192,0.206-0.396,0.317-0.59c0.096-0.167,0.192-0.337,0.312-0.486
				C24.608,25.102,24.686,25.028,24.596,24.901z M32.909,22.652c-0.365,0.359-0.518,0.755-0.73,1.196
				C32.534,23.68,32.844,23.162,32.909,22.652z M39.068,8.14c-0.41-0.07-0.628,0.027-0.737,0.295
				c-0.023,0.056,0.004,0.155,0.044,0.205c0.023,0.029,0.14,0.026,0.177-0.006C38.715,8.494,38.865,8.338,39.068,8.14z
				 M28.397,7.763c0.28-0.049,0.584-0.313,0.663-0.548C28.756,7.31,28.548,7.5,28.397,7.763z M11.323,27.383
				c0.026,0.008,0.051,0.016,0.077,0.025c0.065-0.062,0.139-0.116,0.192-0.187c0.05-0.067,0.126-0.172,0.103-0.222
				c-0.062-0.138-0.176-0.038-0.268-0.011c-0.019,0.006-0.033,0.029-0.064,0.057C11.35,27.148,11.336,27.265,11.323,27.383z
				 M10.997,10.657c0.308,0.017,0.343-0.202,0.436-0.39C11.116,10.279,11.034,10.351,10.997,10.657z M33.773,14.611
				c-0.118,0.123-0.236,0.245-0.369,0.384C33.726,15.078,33.798,15.013,33.773,14.611z M9.693,12.093
				c-0.27,0.005-0.394,0.111-0.474,0.388C9.459,12.439,9.532,12.214,9.693,12.093z M26.139,10.826
				c-0.251,0.008-0.251,0.009-0.341,0.287C26.047,11.105,26.064,11.091,26.139,10.826z M37.573,10.712
				c-0.013-0.027-0.026-0.055-0.039-0.082c-0.129,0.025-0.258,0.051-0.418,0.082c0.06,0.105,0.092,0.161,0.141,0.248
				C37.375,10.868,37.474,10.79,37.573,10.712z M8.248,13.345c0.259,0.079,0.276-0.152,0.406-0.276
				C8.358,12.956,8.353,13.221,8.248,13.345z M24.05,12.889c0.22,0.078,0.245,0.057,0.364-0.286
				C24.227,12.63,24.16,12.774,24.05,12.889z M16.789,35.833c0.092-0.125,0.151-0.206,0.211-0.287
				C16.828,35.55,16.666,35.558,16.789,35.833z M18.173,31.437c-0.03-0.015-0.059-0.029-0.089-0.044
				c-0.025,0.128-0.241,0.164-0.126,0.409C18.044,31.657,18.109,31.547,18.173,31.437z M24.219,26.227
				c0.202-0.032,0.256-0.131,0.337-0.27C24.362,25.958,24.299,26.053,24.219,26.227z M32.922,15.744
				c-0.02-0.019-0.04-0.038-0.06-0.057c-0.047,0.055-0.095,0.109-0.142,0.164c0.015,0.014,0.031,0.029,0.046,0.043
				C32.818,15.844,32.87,15.794,32.922,15.744z M13.435,25.401c-0.019-0.022-0.038-0.044-0.057-0.067
				c-0.077,0.062-0.154,0.124-0.277,0.223C13.33,25.601,13.377,25.494,13.435,25.401z M24.793,26.193
				c-0.047,0.08-0.084,0.13-0.106,0.185c-0.005,0.013,0.036,0.045,0.056,0.068c0.047-0.042,0.1-0.08,0.138-0.13
				C24.888,26.307,24.837,26.253,24.793,26.193z M33.595,21.389c0.012,0.016,0.024,0.031,0.036,0.047
				c0.021-0.004,0.054-0.002,0.06-0.014c0.015-0.031,0.018-0.068,0.026-0.103C33.676,21.342,33.635,21.365,33.595,21.389z
				 M19.301,18.317c-0.018,0.036-0.031,0.063-0.044,0.089c0.029,0.014,0.061,0.042,0.087,0.037c0.021-0.004,0.036-0.047,0.053-0.072
				C19.369,18.355,19.341,18.34,19.301,18.317z"/>
			<path id="XMLID_82_" class="st0" d="M74.632,42.092c-0.164,0.081-0.32,0.188-0.492,0.236c-0.234,0.064-0.482,0.071-0.674,0.252
				c-0.035,0.033-0.11,0.028-0.167,0.031c-0.785,0.047-1.569,0.016-2.332-0.175c-0.54-0.135-1.069-0.308-1.479-0.736
				c-0.434-0.453-0.868-0.905-1.221-1.423c-0.373-0.548-0.552-1.177-0.652-1.827c-0.05-0.321-0.06-0.648-0.11-0.97
				c-0.064-0.414-0.151-0.824-0.227-1.231c-0.278-0.016-0.389,0.047-0.326,0.217c0.142,0.385-0.08,0.561-0.341,0.739
				c-0.018,0.012-0.028,0.037-0.038,0.057c-0.005,0.01-0.002,0.023-0.003,0.054c0.063,0.025,0.131,0.052,0.181,0.072
				c-0.173,0.185-0.342,0.367-0.529,0.566c0.065,0.084,0.118,0.153,0.184,0.239c-0.273,0.329-0.844,0.339-0.984,0.88
				c0.076,0.079-0.009,0.291,0.221,0.365c0.066,0.021,0.018,0.206-0.093,0.29c-0.301,0.229-0.298,0.233-0.351,0.506
				c-0.277,0.129-0.561,0.239-0.822,0.389c-0.204,0.118-0.463,0.224-0.376,0.541c-0.251,0.108-0.521,0.143-0.547,0.494
				c-0.494,0-0.972,0.036-1.443-0.01c-0.488-0.047-0.855-0.35-1.159-0.725c-0.044-0.054-0.08-0.126-0.138-0.155
				c-0.486-0.246-0.516-0.709-0.568-1.164c-0.02-0.173-0.056-0.345-0.06-0.519c-0.004-0.193-0.116-0.295-0.273-0.395
				c-0.185,0.117-0.435,0.173-0.367,0.498c0.011,0.051-0.099,0.152-0.174,0.191c-0.218,0.112-0.452,0.194-0.667,0.31
				c-0.092,0.049-0.152,0.155-0.229,0.234c-0.047,0.048-0.089,0.109-0.146,0.136c-0.463,0.219-0.93,0.432-1.396,0.647
				c-0.032,0.015-0.07,0.024-0.094,0.046c-0.514,0.483-1.209,0.591-1.822,0.865c-0.532,0.238-1.085,0.427-1.666,0.526
				c-0.589,0.099-1.174,0.176-1.767,0.023c-0.119-0.031-0.252-0.004-0.43-0.004c-0.161-0.139-0.367-0.308-0.563-0.489
				c-0.073-0.068-0.129-0.158-0.179-0.246c-0.064-0.113-0.105-0.223-0.273-0.233c-0.07-0.004-0.151-0.103-0.198-0.178
				c-0.08-0.128-0.177-0.266-0.197-0.409c-0.056-0.419-0.208-0.81-0.314-1.214c-0.083-0.314-0.188-0.624-0.313-0.924
				c-0.058-0.139-0.089-0.258-0.046-0.402c0.164-0.547,0.374-1.069,0.637-1.581c0.288-0.562,0.675-1.061,0.961-1.622
				c0.093-0.182,0.264-0.323,0.371-0.501c0.427-0.714,0.951-1.355,1.448-2.018c0.224-0.298,0.423-0.615,0.633-0.923
				c0.026-0.039,0.042-0.089,0.077-0.117c0.43-0.335,0.595-0.86,0.92-1.27c0.114-0.143,0.081-0.282-0.039-0.408
				c0.062-0.211,0.125-0.423,0.192-0.649c-0.506,0.106-0.962,0.24-1.389,0.523c-0.504,0.333-1.07,0.571-1.606,0.857
				c-0.153,0.082-0.278,0.019-0.386-0.065c-0.165-0.128-0.32-0.173-0.513-0.062c-0.064,0.037-0.156,0.027-0.236,0.033
				c-0.136,0.01-0.272,0.017-0.407,0.023c-0.07,0.003-0.146,0.02-0.21,0c-0.324-0.106-0.641-0.239-0.993-0.221
				c-0.038,0.002-0.102-0.036-0.114-0.07c-0.093-0.263-0.398-0.403-0.407-0.719c-0.002-0.081-0.075-0.16-0.117-0.244
				c-0.305,0.231-0.335,0.299-0.19,0.571c0.09,0.168-0.016,0.296-0.059,0.431c-0.046,0.143-0.14,0.264-0.063,0.431
				c0.023,0.049-0.009,0.146-0.048,0.196c-0.113,0.148-0.066,0.258,0.072,0.344c-0.156,0.274-0.305,0.524-0.442,0.78
				c-0.091,0.169-0.062,0.224,0.169,0.344c-0.08,0.116-0.157,0.23-0.238,0.341c-0.097,0.134-0.269,0.24-0.132,0.452
				c0.024,0.037-0.02,0.136-0.057,0.19c-0.105,0.155-0.211,0.312-0.337,0.449c-0.318,0.346-0.551,0.752-0.828,1.127
				c-0.389,0.526-0.809,1.03-1.207,1.549c-0.076,0.099-0.114,0.226-0.17,0.34l0.013-0.009c-0.22,0.181-0.22,0.181-0.246,0.375
				c0.087-0.08,0.166-0.151,0.245-0.223l-0.009-0.008c-0.108,0.226-0.216,0.453-0.351,0.735c0.837-0.134,1.464-0.69,2.226-0.86
				c0.021,0.052,0.038,0.074,0.037,0.095c-0.008,0.103-0.021,0.207-0.033,0.325c-0.165,0.077-0.334,0.154-0.502,0.233
				c-0.237,0.112-0.239,0.115-0.203,0.409c-0.139,0.069-0.284,0.142-0.429,0.215c-0.344,0.173-0.365,0.274-0.1,0.577
				c-0.233,0.154-0.464,0.307-0.71,0.47c0.059,0.05,0.1,0.085,0.173,0.147c-0.137,0.062-0.258,0.117-0.404,0.183
				c0.038,0.085,0.076,0.17,0.121,0.272c-0.237,0.117-0.473,0.233-0.709,0.35c-0.009,0.245-0.396,0.375-0.18,0.66
				c-0.214,0.156-0.411,0.28-0.585,0.431c-0.143,0.125-0.291,0.143-0.455,0.088c-0.409-0.139-0.778-0.327-0.915-0.785
				c-0.013-0.044-0.027-0.108-0.059-0.122c-0.278-0.119-0.276-0.376-0.319-0.615c-0.012-0.067-0.045-0.132-0.076-0.194
				c-0.13-0.26-0.186-0.275-0.42-0.107c-0.143,0.102-0.284,0.208-0.414,0.326c-0.069,0.063-0.15,0.118-0.081,0.263
				c0.073,0.151-0.073,0.259-0.195,0.33c-0.497,0.286-0.999,0.563-1.497,0.846c-0.161,0.092-0.397,0.158-0.456,0.297
				c-0.074,0.173-0.186,0.253-0.32,0.289c-0.459,0.121-0.922,0.242-1.391,0.309c-0.379,0.054-0.769,0.04-1.154,0.039
				c-0.366,0-0.699-0.077-1.009-0.32c-0.259-0.203-0.58-0.324-0.853-0.527c-0.287-0.214-0.509-0.469-0.702-0.76
				c-0.032-0.048-0.042-0.124-0.085-0.149c-0.249-0.151-0.351-0.401-0.447-0.652c-0.068-0.177-0.121-0.361-0.173-0.545
				c-0.111-0.391-0.265-0.778-0.31-1.178c-0.047-0.409-0.291-0.736-0.357-1.127c-0.031-0.183-0.061-0.367-0.1-0.549
				c-0.041-0.196,0.049-0.425-0.146-0.586c-0.021-0.017-0.03-0.069-0.021-0.098c0.095-0.323,0.082-0.665,0.253-0.979
				c0.432-0.789,0.97-1.501,1.513-2.212c0.447-0.585,0.881-1.18,1.409-1.698c0.148-0.145,0.244-0.34,0.385-0.493
				c0.35-0.378,0.706-0.749,1.07-1.112c0.224-0.223,0.464-0.43,0.702-0.638c0.308-0.269,0.611-0.544,0.935-0.793
				c0.381-0.292,0.775-0.567,1.174-0.833c0.472-0.315,0.94-0.642,1.439-0.909c0.575-0.308,1.122-0.68,1.76-0.861
				c0.066-0.019,0.128-0.053,0.189-0.085c0.374-0.2,0.757-0.336,1.196-0.303c0.174,0.013,0.356-0.082,0.549-0.132
				c0.042,0.089,0.076,0.174,0.123,0.252c0.036,0.059,0.08,0.136,0.137,0.155c0.216,0.072,0.439,0.126,0.66,0.182
				c0.043,0.011,0.111-0.021,0.136,0.001c0.296,0.272,0.696,0.439,0.868,0.834c0.129,0.296,0.242,0.599,0.359,0.901
				c0.037,0.095,0.06,0.194,0.095,0.29c0.042,0.116,0.089,0.231,0.151,0.392c-0.022,0.053-0.068,0.159-0.111,0.265
				c-0.104,0.254-0.21,0.501-0.549,0.505c-0.053,0.001-0.107,0.045-0.157,0.075c-0.196,0.115-0.398,0.186-0.632,0.152
				c-0.09-0.013-0.194-0.008-0.278,0.024c-0.653,0.249-1.328,0.429-1.952,0.771c-0.606,0.332-1.217,0.651-1.801,1.023
				c-0.574,0.366-1.115,0.77-1.645,1.196c-1.111,0.892-2.09,1.918-3.018,2.988c-0.604,0.697-1.148,1.449-1.671,2.21
				c-0.342,0.497-0.668,1.02-0.771,1.638c-0.017,0.102-0.029,0.204-0.044,0.309c0.22,0.156,0.437,0.097,0.649,0.04
				c0.327-0.087,0.649-0.197,0.978-0.271c0.54-0.121,1.036-0.351,1.521-0.603c0.513-0.266,1.022-0.539,1.489-0.888
				c0.183-0.137,0.413-0.21,0.617-0.321c0.164-0.089,0.331-0.179,0.478-0.292c0.497-0.379,1.021-0.718,1.499-1.13
				c0.424-0.365,0.854-0.719,1.251-1.115c0.094-0.094,0.258-0.116,0.356-0.208c0.23-0.216,0.452-0.443,0.654-0.685
				c0.83-0.998,1.658-1.998,2.471-3.009c0.264-0.328,0.521-0.657,0.812-0.963c0.203-0.213,0.303-0.521,0.475-0.769
				c0.28-0.403,0.572-0.798,0.88-1.18c0.105-0.13,0.263-0.234,0.417-0.306c0.211-0.1,0.406,0.022,0.473,0.244
				c0.038,0.125,0.103,0.241,0.161,0.373c-0.288,0.035-0.413,0.274-0.542,0.507c-0.022,0.04-0.053,0.086-0.048,0.126
				c0.022,0.179,0.056,0.357,0.094,0.587c0.098-0.006,0.232,0.02,0.332-0.026c0.294-0.136,0.562-0.332,0.863-0.446
				c0.453-0.171,0.843-0.448,1.26-0.676c0.594-0.325,1.168-0.686,1.753-1.027c0.442-0.258,0.881-0.523,1.334-0.76
				c0.484-0.253,0.971-0.514,1.512-0.622c0.261-0.052,0.534-0.066,0.8-0.052c0.141,0.007,0.283,0.101,0.413,0.175
				c0.181,0.102,0.352,0.221,0.526,0.334c0.039,0.025,0.085,0.046,0.111,0.081c0.268,0.353,0.617,0.588,1.031,0.736
				c0.059,0.021,0.116,0.083,0.148,0.14c0.192,0.343,0.362,0.699,0.567,1.033c0.116,0.189,0.121,0.37,0.077,0.569
				c-0.03,0.137-0.08,0.271-0.095,0.409c-0.029,0.268-0.161,0.509-0.098,0.81c0.041,0.196-0.115,0.439-0.196,0.655
				c-0.111,0.294-0.229,0.587-0.358,0.874c-0.123,0.276-0.244,0.555-0.399,0.813c-0.417,0.691-0.843,1.377-1.283,2.053
				c-0.21,0.322-0.463,0.615-0.691,0.925c-0.375,0.509-0.749,1.019-1.118,1.533c-0.204,0.285-0.398,0.579-0.593,0.87
				c-0.064,0.095-0.12,0.196-0.199,0.325c0.091,0,0.15,0.015,0.196-0.002c0.335-0.128,0.672-0.254,1-0.398
				c0.509-0.224,1.013-0.461,1.518-0.694c0.084-0.039,0.161-0.093,0.246-0.132c0.296-0.137,0.591-0.277,0.893-0.401
				c0.066-0.027,0.157,0.008,0.261,0.017c0.108-0.313,0.433-0.341,0.685-0.456c0.457-0.208,0.913-0.411,1.32-0.711
				c0.065-0.048,0.144-0.08,0.221-0.106c0.458-0.161,0.736-0.477,0.928-0.925c0.224-0.523,0.512-1.021,0.787-1.521
				c0.258-0.47,0.524-0.935,0.807-1.39c0.19-0.306,0.413-0.593,0.626-0.884c0.115-0.158,0.25-0.304,0.264-0.514
				c0.231-0.039,0.283-0.255,0.406-0.403c0.195-0.234,0.4-0.46,0.6-0.689c0.338-0.388,0.668-0.782,1.015-1.161
				c0.156-0.17,0.348-0.309,0.516-0.455c0.257,0.059,0.419,0.172,0.553,0.396c0.18,0.301,0.281,0.635,0.457,0.935
				c0.041,0.07,0.071,0.151,0.123,0.211c0.161,0.188,0.207,0.382,0.086,0.61c-0.023,0.044,0.003,0.114,0.008,0.188
				c0.073,0.024,0.145,0.047,0.182,0.059c0.023,0.266,0.064,0.506,0.059,0.746c-0.006,0.305,0.007,0.605-0.269,0.856
				c-0.782,0.711-1.423,1.548-2.031,2.409c-0.014,0.019-0.034,0.037-0.039,0.058c-0.128,0.473-0.469,0.825-0.703,1.238
				c-0.282,0.498-0.583,0.986-0.843,1.495c-0.264,0.517-0.489,1.052-0.725,1.583c-0.029,0.066-0.052,0.17-0.02,0.221
				c0.067,0.107,0.156,0.027,0.244-0.009c0.322-0.135,0.662-0.233,0.97-0.395c0.398-0.209,0.769-0.47,1.156-0.699
				c0.169-0.1,0.355-0.169,0.526-0.265c0.151-0.084,0.289-0.191,0.438-0.28c0.197-0.117,0.401-0.221,0.596-0.341
				c0.206-0.127,0.408-0.263,0.605-0.404c0.042-0.03,0.064-0.096,0.08-0.15c0.14-0.47,0.256-0.949,0.42-1.411
				c0.19-0.537,0.364-1.085,0.712-1.554c0.258-0.348,0.517-0.696,0.745-1.063c0.126-0.203,0.188-0.438,0.371-0.616
				c0.629-0.613,1.238-1.245,1.867-1.857c0.376-0.366,0.769-0.716,1.166-1.059c0.167-0.144,0.362-0.256,0.55-0.373
				c0.348-0.216,0.689-0.448,1.055-0.627c0.202-0.099,0.449-0.109,0.676-0.153c0.126-0.024,0.257-0.024,0.381-0.055
				c0.328-0.083,0.547,0.015,0.684,0.322c0.488-0.019,0.883,0.183,1.149,0.571c0.528-0.161,1.043-0.33,1.566-0.471
				c0.135-0.036,0.312-0.028,0.437,0.03c0.405,0.187,0.75,0.466,1.09,0.756c0.332,0.284,0.578,0.635,0.858,0.96
				c0.087,0.101,0.132,0.243,0.185,0.37c0.048,0.116,0.079,0.238,0.132,0.401c0.296-0.196,0.568-0.373,0.836-0.555
				c0.446-0.303,0.885-0.617,1.336-0.912c0.121-0.079,0.277-0.103,0.414-0.16c0.117-0.049,0.24-0.093,0.342-0.165
				c0.418-0.297,0.827-0.609,1.244-0.908c0.518-0.372,1.034-0.747,1.565-1.1c0.29-0.192,0.6-0.361,0.919-0.498
				c0.151-0.064,0.345-0.027,0.478-0.034c0.249,0.245,0.469,0.461,0.695,0.683c0.066-0.008,0.144-0.017,0.237-0.027
				c0.014,0.193,0.085,0.332,0.253,0.418c0.436,0.224,0.484,0.329,0.381,0.808c0.143,0.117,0.301,0.069,0.459,0.031
				c0.482-0.116,0.968-0.173,1.461-0.083c0.475,0.087,0.879,0.288,1.166,0.697c0.076,0.108,0.202,0.18,0.302,0.272
				c0.11,0.101,0.288,0.192,0.309,0.31c0.057,0.312,0.281,0.469,0.484,0.653c0.143,0.13,0.274,0.252,0.239,0.472
				c-0.008,0.05,0.029,0.11,0.054,0.16c0.159,0.317,0.123,0.645,0.003,0.952c-0.139,0.358-0.312,0.704-0.494,1.042
				c-0.232,0.432-0.495,0.848-0.731,1.279c-0.212,0.388-0.423,0.779-0.598,1.184c-0.132,0.305-0.208,0.634-0.308,0.953
				c-0.007,0.022-0.01,0.046-0.017,0.068c-0.186,0.575-0.354,1.157-0.564,1.723c-0.15,0.404-0.356,0.787-0.536,1.18
				c-0.092,0.201-0.192,0.4-0.272,0.606c-0.031,0.079-0.018,0.176-0.025,0.27c0.242,0.046,0.383-0.094,0.536-0.191
				c0.539-0.342,1.09-0.668,1.606-1.043c0.847-0.616,1.67-1.266,2.505-1.899c0.136-0.103,0.278-0.202,0.426-0.288
				c0.489-0.283,0.745-0.827,1.217-1.111c0.584-0.35,0.971-0.905,1.49-1.321c0.35-0.281,0.636-0.643,0.95-0.969
				c0.023,0.019,0.045,0.037,0.068,0.056c-0.256,0.383-0.513,0.766-0.783,1.17c-0.494-0.094-0.434,0.377-0.591,0.642
				c0.192,0.206,0.181,0.267-0.098,0.458c-0.066-0.072-0.133-0.145-0.216-0.234c-0.281,0.202-0.619,0.346-0.805,0.602
				c-0.3,0.411-0.819,0.609-1.051,1.074c0.139,0.126,0.236,0.082,0.308-0.004c0.192-0.228,0.421-0.365,0.751-0.306
				c-0.005-0.333,0.122-0.553,0.437-0.644c0.055-0.016,0.09-0.098,0.135-0.15c0.074-0.086,0.149-0.172,0.243-0.282
				c0.071,0.097,0.122,0.166,0.182,0.248c0.107-0.02,0.217-0.04,0.325-0.06c0.097,0.224-0.251,0.138-0.197,0.344
				c0.056,0.219-0.238,0.172-0.306,0.331c-0.056,0.131-0.183,0.232-0.296,0.366c0.064,0.048,0.134,0.1,0.217,0.163
				c-0.067,0.12-0.137,0.237-0.198,0.357c-0.025,0.049-0.064,0.121-0.047,0.159c0.138,0.298-0.1,0.416-0.259,0.576
				c-0.079,0.079-0.148,0.167-0.23,0.26c0.081,0.092,0.14,0.159,0.203,0.23c-0.019,0.037-0.028,0.074-0.051,0.095
				c-0.17,0.156-0.346,0.306-0.513,0.465c-0.038,0.036-0.046,0.102-0.071,0.153c-0.107,0.219-0.215,0.437-0.331,0.674
				c0.137,0.32,0.115,0.382-0.208,0.543c-0.061,0.03-0.131,0.058-0.173,0.107c-0.27,0.317-0.61,0.541-0.959,0.757
				c-0.291,0.18-0.33,0.368-0.123,0.71c-0.116,0.12-0.233,0.262-0.373,0.377c-0.137,0.112-0.236,0.228-0.321,0.394
				c-0.093,0.181-0.3,0.311-0.476,0.439c-0.168,0.122-0.356,0.217-0.54,0.316c-0.081,0.044-0.174,0.065-0.259,0.101
				c-0.085,0.036-0.199,0.054-0.245,0.12c-0.257,0.362-0.647,0.368-1.001,0.319c-0.337-0.046-0.679-0.018-1.017-0.127
				c-0.414-0.133-0.722-0.365-1.033-0.661c-0.282-0.267-0.434-0.598-0.647-0.897c-0.04-0.056-0.096-0.118-0.1-0.179
				c-0.015-0.27-0.164-0.426-0.427-0.513c0-0.215-0.007-0.421,0.002-0.627c0.013-0.29,0.034-0.569-0.065-0.861
				c-0.16-0.467-0.152-0.968-0.111-1.454c0.031-0.37,0.124-0.737,0.219-1.097c0.077-0.292,0.185-0.578,0.305-0.856
				c0.188-0.438,0.395-0.868,0.596-1.301c0.211-0.453,0.422-0.906,0.636-1.357c0.381-0.801,0.757-1.605,1.258-2.342
				c0.093-0.137,0.202-0.292,0.105-0.482c-0.754,0.083-1.228,0.618-1.776,1.082c-0.013-0.058-0.022-0.085-0.024-0.112
				c-0.003-0.031-0.001-0.063-0.001-0.165c-0.28,0.203-0.542,0.357-0.758,0.559c-0.359,0.336-0.704,0.689-1.023,1.063
				c-0.203,0.238-0.349,0.524-0.519,0.789c-0.019,0.029-0.036,0.065-0.037,0.098c-0.014,0.537-0.343,0.952-0.561,1.405
				c-0.318,0.663-0.692,1.3-1.037,1.95c-0.405,0.765-0.816,1.526-1.2,2.301c-0.201,0.405-0.393,0.824-0.509,1.258
				c-0.114,0.431-0.353,0.839-0.309,1.31c0.004,0.039-0.038,0.083-0.068,0.144c-0.056-0.016-0.107-0.041-0.159-0.043
				c-0.469-0.01-0.804-0.207-0.957-0.669c-0.01-0.032-0.035-0.065-0.062-0.084c-0.238-0.161-0.276-0.386-0.287-0.662
				c-0.013-0.327-0.133-0.648-0.176-0.976c-0.084-0.629-0.055-1.258,0.097-1.873c0.192-0.773,0.488-1.507,0.891-2.197
				c0.175-0.299,0.308-0.623,0.474-0.927c0.428-0.785,0.862-1.567,1.297-2.349c0.124-0.224,0.257-0.443,0.388-0.663
				c0.107-0.179,0.021-0.312-0.101-0.441c0.167-0.532,0.596-0.938,0.693-1.53c-0.116,0.082-0.222,0.186-0.35,0.241
				c-0.14,0.061-0.252,0.123-0.361,0.247c-0.149,0.17-0.372,0.276-0.564,0.409c-0.096,0.066-0.21,0.115-0.287,0.199
				c-0.146,0.16-0.317,0.259-0.517,0.339c-0.133,0.053-0.25,0.168-0.35,0.277c-0.199,0.216-0.389,0.432-0.7,0.491
				c-0.069,0.013-0.124,0.097-0.187,0.146c-0.211,0.164-0.418,0.335-0.638,0.484c-0.087,0.059-0.207,0.07-0.307,0.102
				c-0.108,0.913-0.394,1.745-0.972,2.457c-0.351,0.433-0.701,0.867-1.073,1.281c-0.256,0.284-0.55,0.533-0.827,0.799
				c-0.188,0.181-0.188,0.181,0.065,0.321c-0.095,0.119-0.239,0.225-0.265,0.354c-0.024,0.12,0.079,0.265,0.13,0.412
				c-0.087,0.103-0.193,0.227-0.296,0.352c-0.102,0.123-0.23,0.228-0.165,0.43c0.017,0.051-0.089,0.148-0.148,0.216
				c-0.129,0.148-0.263,0.293-0.398,0.436c-0.048,0.051-0.098,0.107-0.159,0.136c-0.353,0.165-0.518,0.454-0.546,0.826
				c-0.009,0.121-0.052,0.191-0.144,0.259c-0.073,0.053-0.164,0.127-0.178,0.204c-0.029,0.155-0.128,0.211-0.249,0.264
				c-0.053,0.023-0.125,0.044-0.148,0.087c-0.192,0.355-0.565,0.412-0.888,0.547c-0.263,0.11-0.29,0.144-0.244,0.409
				c-0.14,0.073-0.282,0.147-0.424,0.221c0.041-0.091,0.081-0.18,0.122-0.27c-0.017-0.019-0.035-0.037-0.052-0.056
				c-0.06,0.028-0.147,0.04-0.175,0.087C74.451,41.976,74.512,42.055,74.632,42.092z M74.248,30.987
				c-0.332,0.172-0.563,0.394-0.809,0.606c-0.781,0.673-1.512,1.394-2.201,2.16c-0.701,0.779-1.309,1.615-1.703,2.594
				c-0.275,0.682-0.344,1.402-0.399,2.125c-0.013,0.168,0.057,0.273,0.196,0.376c0.35,0.259,0.778,0.227,1.166,0.339
				c0.22,0.063,0.466,0.103,0.691,0.075c0.484-0.061,0.983-0.098,1.402-0.399c0.055-0.039,0.133-0.08,0.194-0.073
				c0.397,0.051,0.71-0.142,1.029-0.329c0.048-0.028,0.111-0.028,0.166-0.044c0.153-0.045,0.308-0.084,0.457-0.14
				c0.267-0.101,0.523-0.266,0.797-0.305c0.26-0.037,0.428-0.275,0.697-0.25c0.022,0.002,0.046-0.046,0.072-0.067
				c0.096-0.077,0.19-0.159,0.292-0.228c0.201-0.136,0.417-0.25,0.609-0.398c0.249-0.192,0.461-0.434,0.721-0.608
				c0.545-0.364,1.039-0.789,1.477-1.269c0.455-0.499,0.884-1.028,1.272-1.58c0.196-0.279,0.277-0.639,0.402-0.965
				c0.018-0.047-0.005-0.111-0.013-0.224c-0.237,0.121-0.462,0.197-0.64,0.333c-0.408,0.312-0.814,0.607-1.346,0.664
				c-0.077,0.008-0.149,0.061-0.224,0.092c-0.108,0.045-0.213,0.121-0.323,0.13c-0.452,0.034-0.906,0.041-1.359,0.069
				c-0.366,0.022-0.729-0.123-1.099-0.005c-0.058,0.018-0.162-0.064-0.226-0.121c-0.113-0.1-0.2-0.23-0.317-0.322
				c-0.312-0.243-0.706-0.945-0.768-1.336C74.412,31.593,74.324,31.306,74.248,30.987z M80.001,28.242
				c-0.17-0.053-0.308-0.076-0.428-0.137c-0.357-0.182-0.647,0.071-0.965,0.136c-0.027,0.005-0.063,0.049-0.065,0.078
				c-0.016,0.189-0.169,0.191-0.297,0.241c-0.137,0.054-0.354,0.113-0.378,0.209c-0.073,0.295-0.309,0.388-0.511,0.537
				c-0.167,0.123-0.335,0.247-0.482,0.391c-0.18,0.177-0.338,0.377-0.508,0.566c-0.046,0.052-0.105,0.094-0.146,0.15
				c-0.166,0.223-0.33,0.446-0.488,0.674c-0.068,0.098-0.12,0.208-0.19,0.331c0.393,0.109,0.737,0.11,1.089,0.074
				c0.777-0.08,1.501-0.317,2.182-0.693c0.518-0.286,1.034-0.579,1.555-0.859c0.466-0.251,0.568-0.63,0.264-1.071
				c-0.078-0.113-0.187-0.207-0.286-0.304c-0.065-0.064-0.138-0.12-0.214-0.185c0.045-0.097,0.083-0.178,0.138-0.296
				c-0.121-0.047-0.228-0.089-0.396-0.154C79.931,28.069,79.958,28.135,80.001,28.242z M59.892,34.852
				c-0.083,0.026-0.173,0.039-0.249,0.079c-0.373,0.191-0.742,0.388-1.113,0.583c-0.424,0.223-0.846,0.448-1.271,0.668
				c-0.082,0.043-0.171,0.075-0.26,0.102c-0.23,0.071-0.406,0.217-0.629,0.394C56.851,36.656,59.591,35.272,59.892,34.852z
				 M66.902,35.672c-0.556,0.312-1.089,0.612-1.645,0.924c0.146,0.137,0.247,0.11,0.359,0.048c0.475-0.263,0.953-0.521,1.428-0.784
				c0.025-0.014,0.033-0.057,0.056-0.101C67.021,35.724,66.948,35.692,66.902,35.672z"/>
			<path id="XMLID_81_" class="st0" d="M67.15,21.842c0.367-0.641,0.868-1.101,1.465-1.488c0.285-0.185,0.544-0.429,0.818-0.643
				c0.682-0.532,1.346-1.086,2.019-1.628c0.472-0.38,0.949-0.755,1.426-1.129c0.059-0.046,0.134-0.071,0.213-0.112
				c0.009,0.156,0.016,0.282,0.025,0.44c-0.255,0.155-0.157,0.478-0.25,0.73c-0.044,0.118,0.17,0.158,0.088,0.337
				c-0.083,0.18-0.113,0.384-0.293,0.527c0.169,0.157,0.194,0.289,0.124,0.519c-0.087,0.283-0.231,0.585-0.097,0.924
				c0.05,0.127-0.075,0.328-0.134,0.491c-0.027,0.074-0.086,0.137-0.147,0.229c0.086,0.045,0.161,0.084,0.24,0.125
				c0.003,0.014,0.016,0.039,0.009,0.054c-0.052,0.102-0.138,0.189-0.072,0.324c0.016,0.032-0.029,0.098-0.054,0.144
				c-0.021,0.04-0.076,0.074-0.075,0.11c0.002,0.263-0.09,0.482-0.256,0.686c-0.036,0.045,0.027,0.171,0.053,0.298
				c-0.094,0.082-0.193,0.197-0.079,0.388c0.064,0.107-0.041,0.186-0.121,0.262c-0.253,0.242-0.504,0.487-0.742,0.743
				c-0.065,0.07-0.124,0.189-0.115,0.279c0.022,0.219-0.095,0.342-0.232,0.479c-0.18,0.181-0.35,0.374-0.505,0.578
				c-0.441,0.579-1.157,0.541-1.584,0.094c-0.098-0.103-0.22-0.195-0.329-0.284c-0.171-0.141-0.25-0.398-0.361-0.609
				c-0.037-0.071-0.033-0.172-0.084-0.225c-0.173-0.181-0.231-0.408-0.254-0.638c-0.04-0.402-0.212-0.754-0.357-1.12
				c-0.061-0.154-0.192-0.297-0.105-0.493c0.019-0.042-0.043-0.127-0.079-0.184C67.256,21.972,67.196,21.902,67.15,21.842z"/>
			<path id="XMLID_80_" class="st0" d="M31.715,14.597c0.19-0.234,0.314-0.441,0.614-0.55c-0.04,0.153-0.068,0.258-0.1,0.38
				c0.059,0.009,0.121,0.019,0.203,0.031c-0.05,0.205-0.152,0.365-0.292,0.509c-0.062,0.064-0.152,0.157-0.142,0.224
				c0.033,0.221-0.133,0.337-0.217,0.496c-0.005,0.01-0.013,0.022-0.023,0.026c-0.144,0.064-0.287,0.135-0.435,0.189
				c-0.15,0.055-0.154,0.306-0.399,0.269c0.017-0.061,0.03-0.111,0.044-0.161c0.012-0.042,0.024-0.084,0.038-0.129
				c-0.244-0.099-0.296,0.21-0.557,0.215c0.17-0.196,0.297-0.357,0.444-0.497c0.028-0.026,0.134,0.04,0.206,0.048
				c0.083,0.008,0.21,0.033,0.244-0.009c0.258-0.325,0.499-0.664,0.775-1.04C31.972,14.597,31.878,14.597,31.715,14.597z"/>
			<path id="XMLID_79_" class="st0" d="M28.849,19.025c-0.103,0.169-0.204,0.303-0.271,0.453c-0.085,0.193-0.201,0.332-0.368,0.475
				c-0.332,0.287-0.599,0.649-0.894,0.978c-0.072,0.08-0.107,0.216-0.297,0.181c0.041-0.066,0.067-0.12,0.104-0.165
				c0.037-0.043,0.101-0.068,0.126-0.116c0.289-0.541,0.668-1.015,1.071-1.473c0.082-0.093,0.121-0.222,0.196-0.322
				C28.632,18.883,28.675,18.889,28.849,19.025z"/>
			<path id="XMLID_78_" class="st0" d="M14.996,5.615c0.03,0.186-0.081,0.3-0.207,0.409c-0.359,0.313-0.726,0.617-1.07,0.946
				c-0.435,0.415-0.847,0.854-1.275,1.277c-0.092,0.091-0.207,0.158-0.312,0.235c-0.023-0.025-0.046-0.05-0.068-0.075
				c0.122-0.136,0.236-0.279,0.367-0.405c0.435-0.419,0.874-0.834,1.315-1.247c0.118-0.111,0.25-0.206,0.37-0.315
				c0.298-0.271,0.592-0.545,0.887-0.818L14.996,5.615z"/>
			<path id="XMLID_77_" class="st0" d="M29.593,17.873c0.24-0.438,0.46-0.891,0.859-1.218c0.035-0.028,0.06-0.069,0.085-0.107
				c0.179-0.267,0.312-0.284,0.599-0.059c-0.273,0.249-0.548,0.493-0.814,0.745c-0.135,0.128-0.288,0.255-0.372,0.414
				c-0.088,0.166-0.211,0.197-0.363,0.217L29.593,17.873z"/>
			<path id="XMLID_76_" class="st0" d="M15.005,5.622c0.424-0.397,0.844-0.798,1.273-1.189c0.126-0.115,0.274-0.209,0.417-0.305
				c0.028-0.019,0.079-0.003,0.195-0.003c-0.539,0.491-1.024,0.931-1.507,1.374c-0.112,0.103-0.236,0.147-0.386,0.117
				C14.996,5.615,15.005,5.622,15.005,5.622z"/>
			<path id="XMLID_75_" class="st0" d="M18.723,2.481c-0.497,0.586-1.128,1.008-1.771,1.425c0.007-0.029,0.005-0.069,0.024-0.086
				c0.424-0.384,0.841-0.774,1.28-1.14c0.126-0.105,0.314-0.134,0.475-0.197C18.732,2.484,18.723,2.481,18.723,2.481z"/>
			<path id="XMLID_74_" class="st0" d="M29.706,17.092c-0.006,0.041,0.001,0.092-0.02,0.122c-0.153,0.216-0.299,0.437-0.471,0.636
				c-0.158,0.183-0.344,0.34-0.52,0.507c-0.029,0.027-0.065,0.047-0.123,0.046C28.843,17.88,29.293,17.509,29.706,17.092z"/>
			<path id="XMLID_73_" class="st0" d="M10.727,9.749c0.391-0.328,0.592-0.871,1.21-1.05C11.551,9.146,11.165,9.479,10.727,9.749z"
				/>
			<path id="XMLID_72_" class="st0" d="M29.586,17.865c0.008,0.034,0.029,0.071,0.021,0.101c-0.087,0.365-0.374,0.571-0.637,0.798
				c0.059-0.403,0.225-0.728,0.623-0.89C29.593,17.873,29.586,17.865,29.586,17.865z"/>
			<path id="XMLID_71_" class="st0" d="M35.103,10.835c-0.179,0.442-0.572,0.688-0.914,0.98
				C34.401,11.402,34.732,11.1,35.103,10.835z"/>
			<path id="XMLID_70_" class="st0" d="M34.705,11.99c0.095-0.318,0.261-0.587,0.543-0.772c0.023-0.015,0.078,0.02,0.161,0.044
				c-0.083,0.091-0.144,0.153-0.198,0.22c-0.064,0.08-0.168,0.162-0.174,0.249c-0.017,0.239-0.18,0.234-0.341,0.251L34.705,11.99z"
				/>
			<path id="XMLID_69_" class="st0" d="M35.74,10.828c-0.017-0.248,0.2-0.317,0.324-0.42c0.165-0.137,0.251-0.422,0.613-0.369
				c-0.199,0.161-0.357,0.282-0.508,0.412C36.031,10.57,36.006,10.818,35.74,10.828z"/>
			<path id="XMLID_68_" class="st0" d="M13.233,24.476c-0.292,0.277-0.411,0.61-0.753,0.851
				C12.919,24.513,12.919,24.513,13.233,24.476z"/>
			<path id="XMLID_67_" class="st0" d="M12.387,8.991c0.286-0.267,0.572-0.533,0.886-0.825c0.033,0.234-0.121,0.292-0.23,0.386
				c-0.11,0.096-0.225,0.195-0.305,0.315c-0.096,0.145-0.204,0.178-0.356,0.118C12.381,8.983,12.387,8.991,12.387,8.991z"/>
			<path id="XMLID_66_" class="st0" d="M21.706,27.928c0.026-0.096,0.028-0.208,0.083-0.281c0.122-0.163,0.27-0.306,0.427-0.441
				C22.078,27.459,22.095,27.806,21.706,27.928z"/>
			<path id="XMLID_65_" class="st0" d="M36.468,9.445c-0.158,0.272-0.287,0.571-0.672,0.721c0.019-0.261,0.213-0.311,0.322-0.428
				c0.103-0.11,0.197-0.228,0.295-0.342C36.431,9.412,36.449,9.429,36.468,9.445z"/>
			<path id="XMLID_64_" class="st0" d="M25.484,22.694c-0.146,0.246-0.267,0.511-0.594,0.711
				C25.031,23.051,25.152,22.788,25.484,22.694z"/>
			<path id="XMLID_63_" class="st0" d="M20.892,1.829c-0.112,0-0.224,0-0.358,0c0.136-0.217,0.295-0.368,0.587-0.371
				C21.032,1.6,20.956,1.72,20.88,1.84L20.892,1.829z"/>
			<path id="XMLID_62_" class="st0" d="M27.503,19.782c0.137-0.163,0.274-0.326,0.427-0.508c0.02,0.34-0.02,0.398-0.371,0.561
				C27.54,19.817,27.522,19.8,27.503,19.782z"/>
			<path id="XMLID_61_" class="st0" d="M34.696,11.982c-0.18,0.22-0.359,0.442-0.544,0.657c-0.018,0.02-0.079,0.003-0.207,0.003
				c0.269-0.275,0.491-0.488,0.76-0.652L34.696,11.982z"/>
			<path id="XMLID_60_" class="st0" d="M10.436,10.062c-0.219,0.179-0.348,0.463-0.633,0.567
				C10.018,10.443,10.105,10.121,10.436,10.062z"/>
			<path id="XMLID_59_" class="st0" d="M29.89,16.911c0.027-0.214,0.057-0.427,0.347-0.531C30.167,16.624,30.1,16.81,29.89,16.911z"
				/>
			<path id="XMLID_58_" class="st0" d="M15.821,5.742c0.21-0.17,0.419-0.339,0.655-0.529c-0.081,0.3-0.346,0.499-0.657,0.528
				C15.819,5.739,15.821,5.742,15.821,5.742z"/>
			<path id="XMLID_57_" class="st0" d="M17.038,35.019c0.091-0.026,0.181-0.052,0.333-0.095c-0.086,0.222-0.134,0.371-0.38,0.398
				c0.016-0.115,0.028-0.21,0.041-0.305L17.038,35.019z"/>
			<path id="XMLID_56_" class="st0" d="M22.347,26.906c0.131-0.173,0.222-0.295,0.314-0.417
				C22.575,26.884,22.575,26.884,22.347,26.906z"/>
			<path id="XMLID_55_" class="st0" d="M42.386,24.269c0.284-0.207,0.352-0.208,0.601-0.029
				C42.785,24.25,42.616,24.258,42.386,24.269z"/>
			<path id="XMLID_54_" class="st0" d="M1.62,19.213c0.002,0.297-0.268,0.386-0.41,0.573c0.018-0.283,0.288-0.367,0.417-0.563
				L1.62,19.213z"/>
			<path id="XMLID_53_" class="st0" d="M33.858,12.882c-0.036,0.176-0.138,0.271-0.384,0.258c0.122-0.126,0.218-0.226,0.313-0.325
				C33.811,12.838,33.834,12.86,33.858,12.882z"/>
			<path id="XMLID_52_" class="st0" d="M14.52,7.204c-0.12,0.066-0.239,0.133-0.359,0.199c-0.012-0.021-0.024-0.042-0.036-0.063
				C14.238,7.258,14.273,7.049,14.52,7.204z"/>
			<path id="XMLID_51_" class="st0" d="M9.201,11.142c0.122-0.097,0.245-0.194,0.367-0.29C9.506,11.023,9.453,11.204,9.201,11.142z"
				/>
			<path id="XMLID_50_" class="st0" d="M41.728,24.456c0.089-0.189,0.236-0.2,0.408-0.119
				C41.999,24.376,41.864,24.416,41.728,24.456z"/>
			<path id="XMLID_49_" class="st0" d="M18.248,18.776c0.108-0.1,0.038-0.329,0.308-0.346c-0.088,0.14-0.163,0.258-0.238,0.377
				C18.295,18.796,18.271,18.786,18.248,18.776z"/>
			<path id="XMLID_48_" class="st0" d="M15.546,6.141c-0.113,0.12-0.225,0.24-0.344,0.366c-0.031-0.19,0.012-0.232,0.353-0.362
				C15.557,6.145,15.546,6.141,15.546,6.141z"/>
			<path id="XMLID_47_" class="st0" d="M74.564,25.951c0.192-0.029,0.383-0.057,0.575-0.086c0.003,0.026,0.007,0.051,0.01,0.077
				c-0.192,0.021-0.384,0.042-0.576,0.064C74.57,25.988,74.567,25.97,74.564,25.951z"/>
			<path id="XMLID_46_" class="st0" d="M26.119,21.889c-0.078,0.081-0.155,0.162-0.233,0.243c-0.024-0.023-0.047-0.047-0.071-0.07
				c0.079-0.081,0.157-0.161,0.236-0.242C26.074,21.844,26.097,21.867,26.119,21.889z"/>
			<path id="XMLID_45_" class="st0" d="M27.15,21.738c-0.081,0.048-0.161,0.096-0.255,0.152c-0.003-0.144,0.058-0.212,0.179-0.224
				C27.099,21.69,27.124,21.714,27.15,21.738z"/>
			<path id="XMLID_44_" class="st0" d="M40.575,5.505c-0.099,0.116-0.027,0.322-0.285,0.308C40.397,5.712,40.298,5.508,40.575,5.505
				z"/>
			<path id="XMLID_43_" class="st0" d="M25.934,9.542c0.065-0.097,0.111-0.164,0.167-0.247C26.136,9.476,26.136,9.476,25.934,9.542z
				"/>
			<path id="XMLID_42_" class="st0" d="M8.696,11.648c0.124-0.111,0.197-0.177,0.32-0.288C8.964,11.605,8.964,11.605,8.696,11.648z"
				/>
			<path id="XMLID_41_" class="st0" d="M99.274,33.651c-0.075,0.067-0.149,0.133-0.224,0.2c-0.017-0.017-0.033-0.034-0.05-0.051
				c0.072-0.07,0.144-0.14,0.215-0.21C99.235,33.609,99.254,33.63,99.274,33.651z"/>
			<path id="XMLID_40_" class="st0" d="M23.801,12.419c-0.069,0.077-0.138,0.153-0.208,0.23c-0.014-0.013-0.028-0.026-0.042-0.039
				c0.069-0.076,0.139-0.153,0.208-0.229C23.773,12.394,23.787,12.407,23.801,12.419z"/>
			<path id="XMLID_39_" class="st0" d="M21.842,14.352c0.071-0.064,0.143-0.129,0.263-0.238c0.033,0.236-0.049,0.292-0.168,0.322
				C21.906,14.408,21.874,14.38,21.842,14.352z"/>
			<path id="XMLID_38_" class="st0" d="M15.255,22.578c-0.089,0.115-0.136,0.175-0.208,0.267
				C14.998,22.66,15.063,22.614,15.255,22.578z"/>
			<path id="XMLID_37_" class="st0" d="M28.29,18.938c-0.013-0.207,0.007-0.285,0.191-0.243
				C28.421,18.772,28.378,18.827,28.29,18.938z"/>
			<path id="XMLID_36_" class="st0" d="M21.313,28.387c0.046-0.038,0.092-0.076,0.137-0.114c0.014,0.014,0.029,0.029,0.043,0.043
				c-0.044,0.043-0.088,0.085-0.132,0.128C21.345,28.425,21.329,28.406,21.313,28.387z"/>
			<path id="XMLID_35_" class="st0" d="M19.515,2.764c-0.061,0.03-0.121,0.062-0.183,0.088c-0.003,0.001-0.043-0.074-0.04-0.076
				c0.056-0.038,0.116-0.07,0.175-0.104C19.483,2.702,19.499,2.733,19.515,2.764z"/>
			<path id="XMLID_34_" class="st0" d="M45.074,35.782c-0.097,0.085-0.14,0.123-0.183,0.161c-0.017-0.017-0.034-0.034-0.051-0.052
				C44.896,35.866,44.952,35.839,45.074,35.782z"/>
			<path id="XMLID_33_" class="st0" d="M44.268,36.579c0.05-0.012,0.1-0.024,0.15-0.036c0.01,0.012,0.02,0.023,0.03,0.035
				c-0.059,0.045-0.118,0.091-0.177,0.136l0.009,0.008c0-0.051,0.001-0.101,0.001-0.152L44.268,36.579z"/>
			<path id="XMLID_32_" class="st0" d="M24.732,11.532c-0.081,0.028-0.163,0.055-0.255,0.087c0.056-0.141,0.148-0.137,0.257-0.084
				C24.735,11.536,24.732,11.532,24.732,11.532z"/>
			<path id="XMLID_31_" class="st0" d="M32.795,14.042c-0.03,0.048-0.061,0.096-0.091,0.144c-0.016-0.008-0.032-0.016-0.048-0.024
				c0.025-0.056,0.05-0.112,0.075-0.168C32.752,14.01,32.774,14.026,32.795,14.042z"/>
			<path id="XMLID_30_" class="st0" d="M20.021,31.162c0.312-0.184,0.611-0.543,0.773-0.919c0.022-0.052,0.07-0.092,0.104-0.138
				c0.114-0.156,0.211-0.33,0.345-0.465c0.176-0.177,0.212-0.419,0.338-0.614c0.132-0.204,0.297-0.386,0.439-0.584
				c0.074-0.102,0.135-0.215,0.193-0.328c0.101-0.198,0.249-0.333,0.478-0.399c0.101,0.232-0.086,0.356-0.179,0.491
				c-0.189,0.273-0.442,0.5-0.583,0.809c-0.027,0.06-0.085,0.138-0.068,0.183c0.119,0.302-0.123,0.408-0.298,0.508
				c-0.17,0.097-0.288,0.208-0.387,0.377c-0.121,0.206-0.219,0.404-0.285,0.642c-0.104,0.377-0.284,0.736-0.681,0.925
				c-0.096,0.046-0.165,0.159-0.233,0.25c-0.256,0.345-0.506,0.695-0.762,1.041c-0.014,0.019-0.063,0.012-0.115,0.021
				c0.078-0.211,0.132-0.418,0.23-0.601c0.062-0.115,0.194-0.191,0.289-0.289c0.248-0.256,0.406-0.553,0.409-0.919L20.021,31.162z"
				/>
			<path id="XMLID_29_" class="st0" d="M34.49,14.156c-0.082,0.008-0.193,0.02-0.326,0.033c0.082-0.371,0.333-0.598,0.581-0.788
				c0.168-0.128,0.284-0.258,0.357-0.444c0.036-0.093,0.085-0.188,0.202-0.121c0.131,0.075,0.078,0.17,0.002,0.261
				c-0.199,0.237-0.398,0.473-0.59,0.715C34.638,13.91,34.578,14.02,34.49,14.156z"/>
			<path id="XMLID_28_" class="st0" d="M24.596,24.901c0.09,0.127,0.012,0.2-0.068,0.299c-0.12,0.149-0.216,0.319-0.312,0.486
				c-0.111,0.194-0.204,0.398-0.317,0.59c-0.075,0.127-0.189,0.17-0.325,0.074C23.618,26.054,24.325,25.052,24.596,24.901z"/>
			<path id="XMLID_27_" class="st0" d="M32.909,22.652c-0.065,0.509-0.376,1.028-0.73,1.196
				C32.391,23.408,32.545,23.011,32.909,22.652z"/>
			<path id="XMLID_26_" class="st0" d="M39.068,8.14c-0.204,0.198-0.353,0.353-0.516,0.493c-0.037,0.032-0.154,0.035-0.177,0.006
				c-0.04-0.05-0.067-0.149-0.044-0.205C38.44,8.168,38.658,8.07,39.068,8.14z"/>
			<path id="XMLID_25_" class="st0" d="M27.504,8.817c0.104-0.057,0.208-0.114,0.34-0.186c0.07,0.318-0.16,0.407-0.295,0.545
				c-0.112,0.116-0.243,0.211-0.428,0.12c0.137-0.171,0.264-0.329,0.391-0.487L27.504,8.817z"/>
			<path id="XMLID_24_" class="st0" d="M28.397,7.763C28.548,7.5,28.756,7.31,29.06,7.214C28.981,7.45,28.677,7.714,28.397,7.763z"
				/>
			<path id="XMLID_23_" class="st0" d="M11.323,27.383c0.014-0.117,0.028-0.235,0.04-0.339c0.031-0.028,0.045-0.051,0.064-0.057
				c0.093-0.027,0.207-0.126,0.268,0.011c0.022,0.05-0.054,0.155-0.103,0.222c-0.053,0.071-0.127,0.125-0.192,0.187
				C11.374,27.399,11.348,27.391,11.323,27.383z"/>
			<path id="XMLID_22_" class="st0" d="M10.997,10.657c0.038-0.307,0.119-0.378,0.436-0.39
				C11.339,10.455,11.304,10.674,10.997,10.657z"/>
			<path id="XMLID_21_" class="st0" d="M33.773,14.611c0.025,0.402-0.047,0.467-0.369,0.384
				C33.537,14.857,33.655,14.734,33.773,14.611z"/>
			<path id="XMLID_20_" class="st0" d="M9.693,12.093c-0.16,0.121-0.234,0.347-0.474,0.388C9.299,12.203,9.422,12.097,9.693,12.093z
				"/>
			<path id="XMLID_19_" class="st0" d="M26.139,10.826c-0.075,0.265-0.092,0.279-0.341,0.287
				C25.888,10.835,25.889,10.834,26.139,10.826z"/>
			<path id="XMLID_18_" class="st0" d="M37.573,10.712c-0.099,0.078-0.198,0.156-0.316,0.248c-0.049-0.087-0.081-0.143-0.141-0.248
				c0.161-0.031,0.29-0.057,0.418-0.082C37.547,10.657,37.56,10.684,37.573,10.712z"/>
			<path id="XMLID_17_" class="st0" d="M8.248,13.345c0.105-0.125,0.109-0.389,0.406-0.276C8.524,13.193,8.507,13.424,8.248,13.345z
				"/>
			<path id="XMLID_16_" class="st0" d="M24.05,12.889c0.11-0.115,0.176-0.259,0.364-0.286C24.296,12.946,24.27,12.966,24.05,12.889z
				"/>
			<path id="XMLID_15_" class="st0" d="M16.789,35.833c-0.123-0.275,0.039-0.283,0.211-0.287
				C16.94,35.627,16.881,35.708,16.789,35.833z"/>
			<path id="XMLID_14_" class="st0" d="M18.173,31.437c-0.065,0.11-0.13,0.22-0.215,0.365c-0.115-0.245,0.101-0.281,0.126-0.409
				C18.114,31.408,18.144,31.422,18.173,31.437z"/>
			<path id="XMLID_13_" class="st0" d="M9.752,11.77c0.05-0.016,0.101-0.032,0.171-0.054c-0.006,0.148-0.032,0.244-0.227,0.268
				c0.026-0.092,0.045-0.156,0.064-0.22L9.752,11.77z"/>
			<path id="XMLID_12_" class="st0" d="M24.219,26.227c0.079-0.174,0.142-0.269,0.337-0.27
				C24.475,26.096,24.422,26.195,24.219,26.227z"/>
			<path id="XMLID_11_" class="st0" d="M32.922,15.744c-0.052,0.05-0.104,0.1-0.156,0.15c-0.015-0.014-0.031-0.029-0.046-0.043
				c0.047-0.055,0.095-0.109,0.142-0.164C32.882,15.706,32.902,15.725,32.922,15.744z"/>
			<path id="XMLID_10_" class="st0" d="M13.435,25.401c-0.058,0.093-0.106,0.2-0.334,0.156c0.123-0.099,0.2-0.161,0.277-0.223
				C13.397,25.356,13.416,25.378,13.435,25.401z"/>
			<path id="XMLID_9_" class="st0" d="M26.498,22.425c0.086-0.024,0.171-0.048,0.271-0.077c-0.092,0.237-0.092,0.237-0.263,0.068
				L26.498,22.425z"/>
			<path id="XMLID_8_" class="st0" d="M24.793,26.193c0.044,0.061,0.095,0.115,0.088,0.124c-0.038,0.049-0.09,0.088-0.138,0.13
				c-0.02-0.023-0.061-0.055-0.056-0.068C24.709,26.322,24.745,26.272,24.793,26.193z"/>
			<path id="XMLID_7_" class="st0" d="M33.595,21.389c0.041-0.023,0.081-0.046,0.122-0.069c-0.008,0.035-0.011,0.072-0.026,0.103
				c-0.006,0.012-0.039,0.01-0.06,0.014C33.619,21.42,33.607,21.404,33.595,21.389z"/>
			<path id="XMLID_6_" class="st0" d="M19.301,18.317c0.04,0.023,0.068,0.038,0.096,0.054c-0.017,0.026-0.032,0.068-0.053,0.072
				c-0.026,0.005-0.058-0.023-0.087-0.037C19.269,18.38,19.283,18.353,19.301,18.317z"/>
			<path id="XMLID_5_" class="st0" d="M59.892,34.852c-0.301,0.42-3.042,1.804-3.522,1.825c0.222-0.177,0.398-0.323,0.629-0.394
				c0.089-0.027,0.178-0.059,0.26-0.102c0.425-0.22,0.847-0.445,1.271-0.668c0.371-0.195,0.74-0.392,1.113-0.583
				C59.72,34.891,59.809,34.877,59.892,34.852z"/>
			<path id="XMLID_4_" class="st0" d="M66.902,35.672c0.046,0.02,0.119,0.052,0.199,0.087c-0.024,0.044-0.032,0.087-0.056,0.101
				c-0.475,0.263-0.953,0.521-1.428,0.784c-0.112,0.062-0.212,0.089-0.359-0.048C65.812,36.284,66.346,35.984,66.902,35.672z"/>
			<path id="XMLID_3_" class="st0" d="M74.632,42.092c-0.12-0.037-0.182-0.116-0.114-0.23c0.028-0.047,0.115-0.059,0.175-0.087
				c0.017,0.019,0.035,0.037,0.052,0.056c-0.04,0.09-0.081,0.18-0.122,0.27C74.623,42.101,74.632,42.092,74.632,42.092z"/>
			<path id="XMLID_2_" class="st0" d="M44.28,36.571c0,0.051-0.001,0.101-0.001,0.152c-0.079,0.072-0.158,0.144-0.245,0.223
				C44.06,36.752,44.06,36.752,44.28,36.571z"/>
		</g>
	</g>
	<g>
		<path class="st0" d="M21.426,54.804v-3.484l-0.478-0.478h1.72c0.765,0,1.594,0.315,1.594,1.216c0,0.342-0.379,0.792-0.838,0.927
			c0.567,0.091,1.054,0.612,1.054,1.135c0,0.864-0.883,1.152-1.647,1.152h-1.882L21.426,54.804z M22.344,52.813h0.324
			c0.387,0,0.63-0.297,0.63-0.756s-0.243-0.756-0.63-0.756h-0.324V52.813z M22.822,54.812c0.387,0,0.692-0.198,0.692-0.685
			c0-0.45-0.27-0.864-0.684-0.864h-0.486v1.549h0.486H22.822z"/>
		<path class="st0" d="M29.149,55.271h-1.296l-0.99-2.008h-0.315v1.53l0.486,0.478h-1.882l0.478-0.468v-3.484l-0.478-0.478h1.72
			c0.801,0,1.71,0.369,1.71,1.18c0,0.594-0.485,0.963-0.837,1.08l0.937,1.692L29.149,55.271z M26.547,52.813h0.324
			c0.396,0,0.693-0.378,0.693-0.792c0-0.387-0.307-0.72-0.693-0.72h-0.324V52.813z"/>
		<path class="st0" d="M31.353,50.842l-0.468,0.478v3.475l0.468,0.478h-1.872l0.468-0.468v-3.484l-0.468-0.478H31.353z"/>
		<path class="st0" d="M32.055,51.904v-1.062h3.016l-1.882,3.971h1.225l0.604-0.604v1.062H32.01l1.872-3.97h-1.225L32.055,51.904z"
			/>
		<path class="st0" d="M35.339,55.271l0.478-0.478l1.413-3.952h0.567l1.378,3.952l0.477,0.478h-1.899l0.459-0.468l-0.243-0.757
			h-1.332l-0.261,0.747l0.468,0.478H35.339z M37.806,53.597l-0.495-1.458l-0.513,1.458H37.806z"/>
		<path class="st0" d="M44.007,55.271h-1.296l-0.99-2.008h-0.315v1.53l0.486,0.478H40.01l0.478-0.468v-3.484l-0.478-0.478h1.72
			c0.801,0,1.71,0.369,1.71,1.18c0,0.594-0.485,0.963-0.837,1.08l0.937,1.692L44.007,55.271z M41.406,52.813h0.324
			c0.396,0,0.693-0.378,0.693-0.792c0-0.387-0.307-0.72-0.693-0.72h-0.324V52.813z"/>
		<path class="st0" d="M44.753,54.804v-3.484l-0.478-0.478h2.034c1.171,0,2.026,1.045,2.026,2.215c0,1.171-0.855,2.215-2.026,2.215
			h-2.034L44.753,54.804z M46.149,54.812c0.801,0,1.098-0.937,1.098-1.756s-0.297-1.755-1.089-1.755h-0.486v3.511H46.149z"/>
		<path class="st0" d="M49.226,53.255h1.801v0.513h-1.801V53.255z"/>
		<path class="st0" d="M54.914,54.209v1.062h-3.052l0.478-0.468v-3.484l-0.478-0.478h1.882l-0.486,0.478v3.493h1.062L54.914,54.209z
			"/>
		<path class="st0" d="M55.129,55.271l0.478-0.478l1.413-3.952h0.567l1.378,3.952l0.477,0.478h-1.899l0.459-0.468l-0.243-0.757
			h-1.332l-0.261,0.747l0.468,0.478H55.129z M57.596,53.597l-0.495-1.458l-0.513,1.458H57.596z"/>
		<path class="st0" d="M59.801,55.271l0.478-0.468v-3.484l-0.478-0.478h1.477l1.08,1.927l1.09-1.927h1.386l-0.477,0.478v3.475
			l0.477,0.478h-1.872l0.477-0.468v-2.972L62.115,54.2l-1.323-2.368v2.962l0.486,0.478H59.801z"/>
		<path class="st0" d="M67.533,50.716c1.215,0,2.025,1.135,2.025,2.341c0,1.207-0.811,2.341-2.025,2.341
			c-1.216,0-2.025-1.134-2.025-2.341C65.507,51.851,66.317,50.716,67.533,50.716z M68.478,53.057c0-0.828-0.145-1.882-0.945-1.882
			c-0.802,0-0.945,1.054-0.945,1.882c0,0.838,0.144,1.882,0.945,1.882C68.333,54.938,68.478,53.894,68.478,53.057z"/>
		<path class="st0" d="M70.646,51.319l-0.477-0.478h1.872l-0.478,0.478v2.764c0,0.45,0.369,0.828,0.819,0.828
			s0.819-0.378,0.819-0.828v-2.764l-0.468-0.478h1.494l-0.468,0.478v2.764c0,0.783-0.747,1.314-1.558,1.314
			c-0.766,0-1.558-0.486-1.558-1.314V51.319z"/>
		<path class="st0" d="M78.774,55.271h-1.296l-0.99-2.008h-0.315v1.53l0.486,0.478h-1.882l0.478-0.468v-3.484l-0.478-0.478h1.72
			c0.801,0,1.71,0.369,1.71,1.18c0,0.594-0.485,0.963-0.837,1.08l0.937,1.692L78.774,55.271z M76.172,52.813h0.324
			c0.396,0,0.693-0.378,0.693-0.792c0-0.387-0.307-0.72-0.693-0.72h-0.324V52.813z"/>
	</g>
</g>
</svg>