<!-- Generator: Adobe Illustrator 21.1.0, SVG Export Plug-In  -->
<svg version="1.1"
	 xmlns="http://www.w3.org/2000/svg" xmlns:xlink="http://www.w3.org/1999/xlink" xmlns:a="http://ns.adobe.com/AdobeSVGViewerExtensions/3.0/"
	 x="0px" y="0px" width="605.27px" height="219.399px" viewBox="0 0 605.27 219.399"
	 style="enable-background:new 0 0 605.27 219.399;" xml:space="preserve">
<style type="text/css">
	.st0{fill:#FFFFFF;stroke:#000000;stroke-miterlimit:10;}
	.st1{stroke:#000000;stroke-width:2;stroke-miterlimit:10;}
	.st2{fill:none;stroke:#000000;stroke-miterlimit:10;}
</style>
<defs>
</defs>
<path class="st0" d="M315.245,86.107c0,1.114-5.404,5.213-12.07,5.213c-6.666,0-12.07-4.1-12.07-5.213
	c0-1.486,5.404-5.213,12.07-5.213C309.841,80.893,315.245,84.736,315.245,86.107z"/>
<path class="st1" d="M316.081,179.717c12.161-5.949,20.688-18.252,19.633-32.611c-1.331-18.109-16.978-31.718-34.948-30.398
	s-31.459,17.072-30.128,35.181c0.935,12.715,8.815,23.483,19.826,27.88c1.101,0.44,2.872,0.681,2.215-1.024
	c-0.657-1.705-3.552-4.421-5.376-7.461c-1.467-2.444-4.561-7.444-5.143-16.284c-0.537-8.143,5.556-20.35,21.016-20.35
	c13.541,0,21.452,11.133,21.234,22.008c-0.224,11.155-8.872,19.981-9.363,20.706C313.949,178.985,313.417,181.02,316.081,179.717z"
	/>
<circle cx="371.718" cy="148.708" r="3.882"/>
<circle cx="303.175" cy="86.107" r="3.882"/>
<circle cx="349.717" cy="148.708" r="2.429"/>
<circle cx="303.175" cy="50.716" r="2.862"/>
<circle cx="303.175" cy="38.992" r="2.862"/>
<circle cx="303.175" cy="27.208" r="1.528"/>
<circle cx="303.175" cy="102.483" r="1.988"/>
<circle cx="603.282" cy="148.708" r="1.988"/>
<circle cx="1.988" cy="148.708" r="1.988"/>
<circle cx="429.722" cy="148.708" r="2.429"/>
<circle cx="419.721" cy="148.708" r="2.429"/>
<line class="st2" x1="350.451" y1="148.708" x2="452.835" y2="148.708"/>
<g>
	<path d="M347.927,162.313c-4.433,14.551-15.782,26.112-30.2,30.845v1.049c14.968-4.801,26.744-16.791,31.24-31.893H347.927z"/>
	<path d="M288.789,193.211c-14.496-4.699-25.916-16.291-30.366-30.898h-1.039c4.512,15.158,16.359,27.182,31.405,31.947V193.211z"/>
</g>
<polygon points="446.161,148.796 443.864,144.541 455.742,148.796 443.864,153.449 "/>
<g>
	<path d="M303.175,29.215c0.393,3.696,0.484,7.391,0.5,11.087c-0.014,3.696-0.104,7.391-0.5,11.087
		c-0.396-3.696-0.486-7.391-0.5-11.087C302.691,36.606,302.782,32.911,303.175,29.215z"/>
</g>
<g>
	<path d="M303.175,0c0.393,3.696,0.484,7.391,0.5,11.087c-0.014,3.696-0.104,7.391-0.5,11.087c-0.396-3.696-0.486-7.391-0.5-11.087
		C302.691,7.391,302.782,3.696,303.175,0z"/>
</g>
<g>
	<path d="M303.175,52.6c0.393,3.696,0.484,7.391,0.5,11.087c-0.014,3.696-0.104,7.391-0.5,11.087
		c-0.396-3.696-0.486-7.391-0.5-11.087C302.691,59.991,302.782,56.296,303.175,52.6z"/>
</g>
<g>
	<path d="M595.194,148.708c-10.81,0.206-21.62,0.303-32.431,0.383l-32.431,0.117l-32.431-0.115l-16.215-0.139l-16.215-0.245
		l16.215-0.245l16.215-0.14l32.431-0.115l32.431,0.117C573.573,148.405,584.384,148.501,595.194,148.708z"/>
</g>
<g>
	<path d="M303.175,197.224c0.393,3.696,0.484,7.391,0.5,11.087c-0.014,3.696-0.104,7.391-0.5,11.087
		c-0.396-3.696-0.486-7.391-0.5-11.087C302.691,204.616,302.782,200.92,303.175,197.224z"/>
</g>
<g>
	<path d="M328.617,85.977c3.323-4.523,6.826-8.896,10.466-13.155c1.839-2.114,3.757-4.162,5.558-6.307
		c1.83-2.121,3.567-4.32,5.295-6.526c3.436-4.429,6.966-8.779,10.546-13.088c3.621-4.275,7.291-8.509,11.117-12.613l0.077,0.064
		c-3.338,4.51-6.831,8.892-10.374,13.231c-3.584,4.306-7.218,8.57-10.945,12.756c-1.853,2.102-3.699,4.21-5.45,6.397
		c-1.78,2.163-3.445,4.421-5.187,6.615c-3.524,4.356-7.185,8.598-11.026,12.689L328.617,85.977z"/>
</g>
<g>
	<path d="M339.37,91.796c2.941-2.994,6-5.858,9.148-8.623c1.587-1.368,3.224-2.68,4.787-4.076c1.581-1.375,3.1-2.818,4.615-4.266
		c3.019-2.908,6.082-5.766,9.209-8.555c3.118-2.798,6.299-5.526,9.565-8.161l0.05,0.056c-2.955,2.979-5.994,5.864-9.097,8.679
		c-3.094,2.825-6.251,5.58-9.452,8.285c-1.596,1.358-3.187,2.722-4.716,4.154c-1.548,1.411-3.021,2.906-4.544,4.344
		c-3.073,2.848-6.234,5.598-9.514,8.217L339.37,91.796z"/>
</g>
<g>
	<path d="M349.426,98.934c4.385-3.528,8.907-6.864,13.531-10.056c2.327-1.575,4.712-3.068,7.011-4.683
		c2.32-1.585,4.569-3.269,6.813-4.961c4.471-3.408,9.013-6.716,13.592-9.97c4.61-3.212,9.258-6.37,14.022-9.365l0.058,0.081
		c-4.397,3.512-8.911,6.859-13.462,10.153c-4.582,3.251-9.202,6.449-13.892,9.547c-2.337,1.56-4.669,3.129-6.929,4.797
		c-2.282,1.638-4.478,3.398-6.732,5.076c-4.537,3.314-9.177,6.484-13.953,9.462L349.426,98.934z"/>
</g>
<g>
	<path d="M358.438,109.817c5.306-2.542,10.702-4.866,16.165-7.026c2.741-1.057,5.521-2.02,8.243-3.121
		c2.737-1.067,5.427-2.248,8.113-3.438c5.362-2.405,10.771-4.697,16.204-6.929c5.453-2.183,10.932-4.306,16.486-6.242l0.038,0.093
		c-5.314,2.523-10.704,4.86-16.119,7.136c-5.435,2.228-10.895,4.395-16.401,6.449c-2.748,1.04-5.492,2.089-8.19,3.251
		c-2.712,1.128-5.367,2.395-8.06,3.568c-5.406,2.299-10.879,4.435-16.441,6.352L358.438,109.817z"/>
</g>
<g>
	<path d="M364.421,120.004c4.026-1.319,8.097-2.468,12.202-3.489c2.057-0.492,4.134-0.91,6.182-1.437
		c2.055-0.5,4.087-1.089,6.116-1.685c4.056-1.207,8.128-2.349,12.225-3.4c4.093-1.064,8.211-2.036,12.36-2.887l0.019,0.073
		c-4.031,1.299-8.095,2.477-12.182,3.562c-4.084,1.099-8.192,2.106-12.317,3.049c-2.061,0.479-4.119,0.965-6.155,1.539
		c-2.042,0.548-4.056,1.204-6.09,1.787c-4.076,1.129-8.186,2.13-12.341,2.96L364.421,120.004z"/>
</g>
<g>
	<path d="M367.232,130.115c5.846-1.072,11.721-1.91,17.619-2.573c2.952-0.306,5.916-0.512,8.862-0.867
		c2.95-0.318,5.886-0.757,8.82-1.206c5.865-0.926,11.744-1.73,17.632-2.469c5.894-0.687,11.797-1.31,17.724-1.732l0.012,0.099
		c-5.849,1.052-11.722,1.904-17.604,2.691c-5.888,0.735-11.785,1.405-17.696,1.954c-2.954,0.288-5.907,0.587-8.845,1.006
		c-2.942,0.382-5.866,0.914-8.802,1.345c-5.879,0.812-11.779,1.448-17.709,1.85L367.232,130.115z"/>
</g>
<g>
	<path d="M291.105,102.483c-15.953,4.169-28.685,16.392-33.559,32.051h1.055c4.814-15.104,17.107-26.895,32.504-31.014V102.483z"/>
	<path d="M315.245,102.483v1.037c15.398,4.118,27.691,15.909,32.505,31.014h1.055C343.93,118.875,331.198,106.652,315.245,102.483z"
		/>
</g>
<circle cx="234.164" cy="148.708" r="3.882"/>
<circle cx="256.165" cy="148.708" r="2.429"/>
<circle cx="176.16" cy="148.708" r="2.429"/>
<circle cx="186.161" cy="148.708" r="2.429"/>
<line class="st2" x1="255.431" y1="148.708" x2="153.047" y2="148.708"/>
<polygon points="159.721,148.796 162.018,144.541 150.14,148.796 162.018,153.449 "/>
<g>
	<path d="M10.688,148.708c10.81-0.206,21.62-0.303,32.431-0.383l32.431-0.117l32.431,0.115l16.215,0.14l16.215,0.245l-16.215,0.245
		l-16.215,0.139l-32.431,0.115l-32.431-0.117C32.309,149.01,21.498,148.914,10.688,148.708z"/>
</g>
<g>
	<path d="M277.188,86.041c-3.841-4.092-7.502-8.334-11.026-12.69c-1.743-2.194-3.407-4.453-5.187-6.615
		c-1.752-2.186-3.597-4.295-5.45-6.397c-3.728-4.186-7.362-8.451-10.945-12.756c-3.543-4.34-7.036-8.721-10.374-13.231l0.077-0.064
		c3.826,4.105,7.497,8.338,11.117,12.613c3.58,4.309,7.11,8.66,10.546,13.088c1.729,2.206,3.465,4.405,5.296,6.526
		c1.802,2.145,3.719,4.193,5.558,6.307c3.64,4.259,7.143,8.632,10.466,13.155L277.188,86.041z"/>
</g>
<g>
	<path d="M266.462,91.852c-3.28-2.619-6.441-5.369-9.514-8.217c-1.524-1.438-2.996-2.933-4.544-4.344
		c-1.529-1.432-3.12-2.796-4.716-4.154c-3.202-2.705-6.359-5.46-9.452-8.285c-3.103-2.815-6.142-5.7-9.097-8.679l0.05-0.056
		c3.266,2.634,6.447,5.362,9.565,8.161c3.127,2.788,6.19,5.647,9.209,8.555c1.514,1.448,3.034,2.891,4.615,4.266
		c1.562,1.396,3.2,2.707,4.787,4.076c3.148,2.765,6.207,5.628,9.148,8.623L266.462,91.852z"/>
</g>
<g>
	<path d="M256.398,99.016c-4.776-2.978-9.416-6.148-13.953-9.462c-2.254-1.678-4.449-3.438-6.731-5.076
		c-2.261-1.668-4.592-3.237-6.929-4.797c-4.691-3.098-9.31-6.296-13.892-9.547c-4.552-3.294-9.065-6.641-13.462-10.153l0.058-0.082
		c4.764,2.994,9.412,6.153,14.022,9.365c4.579,3.255,9.121,6.563,13.592,9.97c2.243,1.692,4.493,3.377,6.813,4.961
		c2.298,1.615,4.684,3.108,7.011,4.683c4.624,3.192,9.146,6.528,13.531,10.056L256.398,99.016z"/>
</g>
<g>
	<path d="M247.406,109.909c-5.562-1.918-11.035-4.053-16.441-6.352c-2.693-1.173-5.348-2.44-8.06-3.568
		c-2.698-1.162-5.442-2.211-8.19-3.251c-5.506-2.054-10.966-4.221-16.401-6.449c-5.415-2.276-10.806-4.613-16.119-7.136l0.038-0.093
		c5.555,1.936,11.033,4.059,16.486,6.242c5.433,2.232,10.842,4.524,16.204,6.929c2.686,1.19,5.377,2.37,8.113,3.438
		c2.722,1.102,5.502,2.065,8.243,3.121c5.463,2.16,10.858,4.484,16.165,7.026L247.406,109.909z"/>
</g>
<g>
	<path d="M241.441,120.076c-4.155-0.83-8.264-1.831-12.341-2.96c-2.033-0.583-4.047-1.24-6.09-1.787
		c-2.035-0.575-4.094-1.06-6.155-1.539c-4.125-0.943-8.233-1.95-12.317-3.049c-4.088-1.086-8.151-2.263-12.182-3.562l0.019-0.073
		c4.149,0.85,8.267,1.823,12.36,2.887c4.097,1.051,8.169,2.193,12.225,3.4c2.03,0.596,4.061,1.185,6.116,1.685
		c2.048,0.527,4.124,0.945,6.182,1.437c4.105,1.02,8.176,2.169,12.202,3.489L241.441,120.076z"/>
</g>
<g>
	<path d="M238.638,130.214c-5.93-0.403-11.831-1.038-17.709-1.85c-2.936-0.431-5.86-0.963-8.802-1.345
		c-2.938-0.419-5.89-0.718-8.845-1.006c-5.912-0.549-11.808-1.219-17.696-1.954c-5.882-0.787-11.755-1.639-17.604-2.691l0.012-0.099
		c5.927,0.422,11.83,1.045,17.724,1.732c5.888,0.74,11.767,1.544,17.632,2.469c2.934,0.449,5.869,0.888,8.82,1.206
		c2.946,0.355,5.91,0.56,8.862,0.867c5.897,0.663,11.773,1.501,17.619,2.573L238.638,130.214z"/>
</g>
</svg>