<!-- Generator: Adobe Illustrator 21.1.0, SVG Export Plug-In  -->
<svg version="1.1"
	 xmlns="http://www.w3.org/2000/svg" xmlns:xlink="http://www.w3.org/1999/xlink" xmlns:a="http://ns.adobe.com/AdobeSVGViewerExtensions/3.0/"
	 x="0px" y="0px" width="3947.021px" height="190.497px" viewBox="0 0 3947.021 190.497"
	 style="enable-background:new 0 0 3947.021 190.497;" xml:space="preserve">
<style type="text/css">
	.st0{clip-path:url(#SVGID_5_);}
	.st1{clip-path:url(#SVGID_6_);}
	.st2{fill:#FFFFFF;}
	.st3{fill:#222221;}
	.st4{clip-path:url(#SVGID_7_);}
	.st5{clip-path:url(#SVGID_8_);}
	.st6{clip-path:url(#SVGID_10_);}
	.st7{clip-path:url(#SVGID_12_);}
	.st8{clip-path:url(#SVGID_14_);}
	.st9{clip-path:url(#SVGID_16_);}
</style>
<defs>
</defs>
<g>
	<g>
		<defs>
			<rect id="SVGID_3_" x="67.942" y="52.945" width="2025.657" height="59.674"/>
		</defs>
		<clipPath id="SVGID_5_">
			<use xlink:href="#SVGID_3_"  style="overflow:visible;"/>
		</clipPath>
		<g class="st0">
			<g>
				<defs>
					<rect id="SVGID_4_" x="67.942" y="52.945" width="2025.657" height="59.674"/>
				</defs>
				<use xlink:href="#SVGID_4_"  style="overflow:visible;fill:#FFFFFF;"/>
				<clipPath id="SVGID_6_">
					<use xlink:href="#SVGID_4_"  style="overflow:visible;"/>
				</clipPath>
				<g class="st1">
					<polygon class="st2" points="380.662,42.196 84.319,190.497 0,148.3 296.343,0 					"/>
					<polygon class="st2" points="717.058,42.196 420.715,190.497 336.396,148.3 632.739,0 					"/>
					<polygon class="st2" points="1052.795,42.196 756.452,190.497 672.133,148.3 968.476,0 					"/>
					<polygon class="st2" points="1390.75,42.196 1094.406,190.497 1010.088,148.3 1306.431,0 					"/>
					<polygon class="st2" points="1727.146,42.196 1430.802,190.497 1346.483,148.3 1642.827,0 					"/>
					<polygon class="st2" points="2062.882,42.196 1766.539,190.497 1682.22,148.3 1978.563,0 					"/>
				</g>
			</g>
			<g>
				
					<rect x="1036.273" y="65.411" transform="matrix(0.7071 -0.7071 0.7071 0.7071 266.8806 834.8034)" class="st3" width="209.728" height="59.674"/>
				
					<rect x="1204.617" y="65.411" transform="matrix(0.7071 -0.7071 0.7071 0.7071 316.1875 953.8407)" class="st3" width="209.728" height="59.674"/>
				
					<rect x="1372.631" y="65.411" transform="matrix(0.7071 -0.7071 0.7071 0.7071 365.3978 1072.6448)" class="st3" width="209.728" height="59.674"/>
				
					<rect x="1541.756" y="65.411" transform="matrix(0.7071 -0.7071 0.7071 0.7071 414.9331 1192.2338)" class="st3" width="209.728" height="59.674"/>
				
					<rect x="1710.1" y="65.411" transform="matrix(0.7071 -0.7071 0.7071 0.7071 464.24 1311.2711)" class="st3" width="209.728" height="59.674"/>
				
					<rect x="1878.114" y="65.411" transform="matrix(0.7071 -0.7071 0.7071 0.7071 513.4503 1430.0752)" class="st3" width="209.728" height="59.674"/>
			</g>
		</g>
		<g class="st0">
			<g>
				
					<rect x="24.325" y="65.411" transform="matrix(0.7071 -0.7071 0.7071 0.7071 -29.512 119.2484)" class="st3" width="209.728" height="59.674"/>
				
					<rect x="192.669" y="65.411" transform="matrix(0.7071 -0.7071 0.7071 0.7071 19.7949 238.2857)" class="st3" width="209.728" height="59.674"/>
				
					<rect x="360.684" y="65.411" transform="matrix(0.7071 -0.7071 0.7071 0.7071 69.0052 357.0898)" class="st3" width="209.728" height="59.674"/>
				
					<rect x="529.808" y="65.411" transform="matrix(0.7071 -0.7071 0.7071 0.7071 118.5406 476.6788)" class="st3" width="209.728" height="59.674"/>
				
					<rect x="698.152" y="65.411" transform="matrix(0.7071 -0.7071 0.7071 0.7071 167.8474 595.7161)" class="st3" width="209.728" height="59.674"/>
				
					<rect x="866.167" y="65.411" transform="matrix(0.7071 -0.7071 0.7071 0.7071 217.0577 714.5202)" class="st3" width="209.728" height="59.674"/>
			</g>
		</g>
	</g>
	<g>
		<defs>
			<rect id="SVGID_1_" x="1921.364" y="52.945" width="2025.657" height="59.674"/>
		</defs>
		<clipPath id="SVGID_7_">
			<use xlink:href="#SVGID_1_"  style="overflow:visible;"/>
		</clipPath>
		<g class="st4">
			<g>
				<defs>
					<rect id="SVGID_2_" x="1921.364" y="52.945" width="2025.657" height="59.674"/>
				</defs>
				<use xlink:href="#SVGID_2_"  style="overflow:visible;fill:#FFFFFF;"/>
				<clipPath id="SVGID_8_">
					<use xlink:href="#SVGID_2_"  style="overflow:visible;"/>
				</clipPath>
				<g class="st5">
					<polygon class="st2" points="2234.085,42.196 1937.742,190.497 1853.423,148.3 2149.766,0 					"/>
					<polygon class="st2" points="2570.48,42.196 2274.137,190.497 2189.818,148.3 2486.162,0 					"/>
					<polygon class="st2" points="2906.217,42.196 2609.874,190.497 2525.555,148.3 2821.898,0 					"/>
					<polygon class="st2" points="3244.172,42.196 2947.829,190.497 2863.51,148.3 3159.853,0 					"/>
					<polygon class="st2" points="3580.568,42.196 3284.225,190.497 3199.906,148.3 3496.249,0 					"/>
					<polygon class="st2" points="3916.305,42.196 3619.962,190.497 3535.643,148.3 3831.986,0 					"/>
				</g>
			</g>
			<g>
				
					<rect x="2889.696" y="65.411" transform="matrix(0.7071 -0.7071 0.7071 0.7071 809.7355 2145.3711)" class="st3" width="209.728" height="59.674"/>
				
					<rect x="3058.04" y="65.411" transform="matrix(0.7071 -0.7071 0.7071 0.7071 859.0424 2264.4084)" class="st3" width="209.728" height="59.674"/>
				
					<rect x="3226.054" y="65.411" transform="matrix(0.7071 -0.7071 0.7071 0.7071 908.2527 2383.2124)" class="st3" width="209.728" height="59.674"/>
				
					<rect x="3395.178" y="65.411" transform="matrix(0.7071 -0.7071 0.7071 0.7071 957.788 2502.8015)" class="st3" width="209.728" height="59.674"/>
				
					<rect x="3563.523" y="65.411" transform="matrix(0.7071 -0.7071 0.7071 0.7071 1007.0949 2621.8389)" class="st3" width="209.728" height="59.674"/>
				
					<rect x="3731.537" y="65.411" transform="matrix(0.7071 -0.7071 0.7071 0.7071 1056.3052 2740.6428)" class="st3" width="209.728" height="59.674"/>
			</g>
		</g>
		<g class="st4">
			<g>
				
					<rect x="1877.748" y="65.411" transform="matrix(0.7071 -0.7071 0.7071 0.7071 513.343 1429.816)" class="st3" width="209.728" height="59.674"/>
				
					<rect x="2046.092" y="65.411" transform="matrix(0.7071 -0.7071 0.7071 0.7071 562.6498 1548.8534)" class="st3" width="209.728" height="59.674"/>
				
					<rect x="2214.106" y="65.411" transform="matrix(0.7071 -0.7071 0.7071 0.7071 611.86 1667.6575)" class="st3" width="209.728" height="59.674"/>
				
					<rect x="2383.231" y="65.411" transform="matrix(0.7071 -0.7071 0.7071 0.7071 661.3954 1787.2465)" class="st3" width="209.728" height="59.674"/>
				
					<rect x="2551.575" y="65.411" transform="matrix(0.7071 -0.7071 0.7071 0.7071 710.7023 1906.2838)" class="st3" width="209.728" height="59.674"/>
				
					<rect x="2719.589" y="65.411" transform="matrix(0.7071 -0.7071 0.7071 0.7071 759.9126 2025.0879)" class="st3" width="209.728" height="59.674"/>
			</g>
		</g>
	</g>
</g>
</svg>